<svg width="16" height="16" viewBox="0 0 16 16" fill="none" xmlns="http://www.w3.org/2000/svg">
<path d="M3.46 4.25333C3.33334 4.25333 3.2 4.2 3.10667 4.10667C2.91334 3.91333 2.91334 3.59333 3.10667 3.4L5.52667 0.979999C5.72 0.786666 6.04 0.786666 6.23334 0.979999C6.42667 1.17333 6.42667 1.49333 6.23334 1.68667L3.81334 4.10667C3.71334 4.2 3.58667 4.25333 3.46 4.25333Z" fill="currentColor"/>
<path d="M12.5399 4.25333C12.4132 4.25333 12.2866 4.20667 12.1866 4.10667L9.76658 1.68667C9.57325 1.49333 9.57325 1.17333 9.76658 0.979999C9.95992 0.786666 10.2799 0.786666 10.4732 0.979999L12.8932 3.4C13.0866 3.59333 13.0866 3.91333 12.8932 4.10667C12.7999 4.2 12.6666 4.25333 12.5399 4.25333Z" fill="currentColor"/>
<path d="M13.4733 7.06667C13.4266 7.06667 13.3799 7.06667 13.3333 7.06667H13.1799H2.66659C2.19992 7.07333 1.66659 7.07333 1.27992 6.68667C0.973252 6.38667 0.833252 5.92 0.833252 5.23333C0.833252 3.4 2.17325 3.4 2.81325 3.4H13.1866C13.8266 3.4 15.1666 3.4 15.1666 5.23333C15.1666 5.92667 15.0266 6.38667 14.7199 6.68667C14.3733 7.03333 13.9066 7.06667 13.4733 7.06667ZM2.81325 6.06667H13.3399C13.6399 6.07333 13.9199 6.07333 14.0133 5.98C14.0599 5.93333 14.1599 5.77333 14.1599 5.23333C14.1599 4.48 13.9733 4.4 13.1799 4.4H2.81325C2.01992 4.4 1.83325 4.48 1.83325 5.23333C1.83325 5.77333 1.93992 5.93333 1.97992 5.98C2.07325 6.06667 2.35992 6.06667 2.65325 6.06667H2.81325Z" fill="currentColor"/>
<path d="M9.92659 15.1667H5.90658C3.51992 15.1667 2.98658 13.7467 2.77992 12.5133L1.83992 6.74667C1.79325 6.47333 1.97992 6.22 2.25325 6.17333C2.52658 6.12667 2.77992 6.31333 2.82658 6.58667L3.76658 12.3467C3.95992 13.5267 4.35992 14.1667 5.90658 14.1667H9.92659C11.6399 14.1667 11.8333 13.5667 12.0533 12.4067L13.1733 6.57333C13.2266 6.3 13.4866 6.12 13.7599 6.18C14.0333 6.23333 14.2066 6.49333 14.1533 6.76667L13.0333 12.6C12.7733 13.9533 12.3399 15.1667 9.92659 15.1667Z" fill="currentColor"/>
</svg>
