<svg width="19" height="18" viewBox="0 0 19 18" fill="none" xmlns="http://www.w3.org/2000/svg">
<path d="M9.29074 1.5V3M16.2585 3.75L15.0972 4.875M2.323 3.75L3.48429 4.875M9.29076 16.5C12.0811 16.5 14.5656 14.7409 16.1634 13.2592C17.3225 12.1843 17.3225 10.3157 16.1634 9.24084C14.5656 7.75913 12.0811 6 9.29076 6C6.50041 6 4.01588 7.75913 2.4181 9.24084C1.25907 10.3157 1.25907 12.1843 2.4181 13.2592C4.01588 14.7409 6.50041 16.5 9.29076 16.5ZM11.6133 11.25C11.6133 12.4926 10.5735 13.5 9.29074 13.5C8.00801 13.5 6.96816 12.4926 6.96816 11.25C6.96816 10.0074 8.00801 9 9.29074 9C10.5735 9 11.6133 10.0074 11.6133 11.25Z" stroke="currentColor" stroke-linecap="round"/>
</svg>
