<svg width="146" height="36" viewBox="0 0 146 36" fill="currentColor" xmlns="http://www.w3.org/2000/svg">
<path d="M18.6411 0.821943C19.0062 0.0829115 19.8857 -0.212253 20.6054 0.162675C21.3251 0.537603 21.6125 1.44065 21.2474 2.17968L10.5271 23.8779C10.162 24.6169 9.28257 24.9121 8.56285 24.5372C7.84314 24.1622 7.55569 23.2592 7.92082 22.5202L18.6411 0.821943Z"/>
<path d="M11.6901 16.5519C12.4972 16.5519 13.1514 17.2237 13.1514 18.0524C13.1514 18.8811 12.4972 19.5528 11.6901 19.5528H1.46127C0.654231 19.5528 -3.52766e-08 18.8811 0 18.0524C3.52766e-08 17.2237 0.654231 16.5519 1.46127 16.5519H11.6901Z"/>
<path d="M12.6034 13.0489V19.5528H4.56646L4.56646 16.5519C4.56646 16.5519 8.63353 16.6663 10.5029 15.4265C11.7002 14.6323 12.6034 13.0489 12.6034 13.0489Z"/>
<path d="M12.6034 16.5519V19.5528L7.94564 22.5538C7.94564 22.5538 8.31096 21.8974 8.40228 21.616C8.59698 21.0162 8.58494 20.5493 8.1283 20.0217C7.39766 19.1777 4.56646 19.5528 4.56646 19.5528L4.56646 16.5519L12.6034 16.5519Z"/>
<path d="M13.3589 35.1781C12.9938 35.9171 12.1143 36.2123 11.3946 35.8373C10.6749 35.4624 10.3875 34.5594 10.7526 33.8203L21.4729 12.1221C21.838 11.3831 22.7174 11.0879 23.4371 11.4628C24.1569 11.8378 24.4443 12.7408 24.0792 13.4798L13.3589 35.1781Z"/>
<path d="M20.3099 19.4481C19.5028 19.4481 18.8486 18.7763 18.8486 17.9476C18.8486 17.1189 19.5028 16.4472 20.3099 16.4472L30.5387 16.4472C31.3458 16.4472 32 17.119 32 17.9476C32 18.7763 31.3458 19.4481 30.5387 19.4481L20.3099 19.4481Z"/>
<path d="M19.3966 22.9511V16.4472H27.4335V19.4482C27.4335 19.4482 23.3665 19.3337 21.4971 20.5735C20.2998 21.3677 19.3966 22.9511 19.3966 22.9511Z"/>
<path d="M19.3966 19.4481V16.4472L24.0544 13.4462C24.0544 13.4462 23.689 14.1026 23.5977 14.384C23.403 14.9838 23.4151 15.4507 23.8717 15.9783C24.6023 16.8223 27.4335 16.4472 27.4335 16.4472V19.4482L19.3966 19.4481Z"/>
<path d="M54.4219 21.9298L53.1797 19.3355H46.1509L44.9087 21.9298H43L48.2413 11.1842H51.1347L56.3912 21.9298H54.4219ZM46.8628 17.8618H52.4677L49.6653 12.0132L46.8628 17.8618Z"/>
<path d="M68.9466 20.3487H70.2493V24.4167H68.477V21.9298H58.6154V24.4167H56.8582V20.3487H57.9488C58.4639 19.6937 58.8477 18.6447 59.1001 17.2018C59.3526 15.7588 59.5394 13.7529 59.6606 11.1842H68.9466V20.3487ZM67.0379 20.3487V12.7654H61.3572C61.1755 15.068 60.9583 16.7515 60.7059 17.8158C60.4736 18.8392 60.1706 19.6835 59.797 20.3487H67.0379Z"/>
<path d="M70.6812 12.7654V11.1842H81.9516V12.7654H77.2707V21.9298H75.362V12.7654H70.6812Z"/>
<path d="M98.0241 18.2149L99.8571 18.3224C99.6652 19.4993 99.0643 20.4254 98.0544 21.1009C97.0546 21.7763 95.6913 22.114 93.9644 22.114C91.884 22.114 90.2732 21.6075 89.132 20.5943C87.9909 19.5811 87.4203 18.2354 87.4203 16.557C87.4203 14.8787 87.9757 13.5329 89.0866 12.5197C90.2076 11.5066 91.778 11 93.7977 11C95.4136 11 96.7466 11.3275 97.7969 11.9825C98.8573 12.6272 99.4935 13.4971 99.7056 14.5921L97.8727 14.7149C97.7111 14.0702 97.2516 13.5534 96.4941 13.1645C95.7468 12.7756 94.848 12.5811 93.7977 12.5811C92.3839 12.5811 91.2831 12.9547 90.4954 13.7018C89.7178 14.4386 89.329 15.3904 89.329 16.557C89.329 17.7339 89.7279 18.6908 90.5257 19.4276C91.3336 20.1645 92.4798 20.5329 93.9644 20.5329C95.0954 20.5329 96.0145 20.318 96.7214 19.8882C97.4283 19.4481 97.8626 18.8904 98.0241 18.2149Z"/>
<path d="M111.372 18.2303V18.4452H102.935C103.056 19.2332 103.429 19.8319 104.056 20.2412C104.692 20.6404 105.51 20.8399 106.51 20.8399C107.934 20.8399 108.913 20.4664 109.448 19.7193L111.206 19.7961C110.913 20.5329 110.362 21.106 109.554 21.5154C108.757 21.9145 107.742 22.114 106.51 22.114C104.843 22.114 103.525 21.7661 102.556 21.0702C101.596 20.364 101.117 19.3099 101.117 17.9079C101.117 16.5263 101.591 15.4825 102.541 14.7763C103.5 14.0599 104.773 13.7018 106.358 13.7018C109.701 13.7018 111.372 15.2113 111.372 18.2303ZM106.358 14.9759C105.429 14.9759 104.661 15.1703 104.056 15.5592C103.45 15.9481 103.081 16.5263 102.95 17.2939H109.585C109.544 16.5775 109.236 16.0146 108.661 15.6053C108.095 15.1857 107.328 14.9759 106.358 14.9759Z"/>
<path d="M119.699 17.7544C120.608 17.8465 121.285 18.0461 121.729 18.3531C122.173 18.6601 122.396 19.1155 122.396 19.7193C122.396 20.3538 122.123 20.8808 121.578 21.3004C121.042 21.72 120.103 21.9298 118.76 21.9298H113.155V13.886H118.518C119.74 13.886 120.633 14.0753 121.199 14.4539C121.764 14.8224 122.047 15.3085 122.047 15.9123C122.047 16.9254 121.265 17.5395 119.699 17.7544ZM114.973 15.1908V17.2632H118.29C119.583 17.2632 120.229 16.9152 120.229 16.2193C120.229 15.5336 119.548 15.1908 118.184 15.1908H114.973ZM118.472 20.625C119.876 20.625 120.578 20.2515 120.578 19.5044C120.578 19.136 120.406 18.8596 120.063 18.6754C119.73 18.4912 119.164 18.3991 118.366 18.3991H114.973V20.625H118.472Z"/>
<path d="M133.962 18.2303V18.4452H125.524C125.645 19.2332 126.019 19.8319 126.645 20.2412C127.281 20.6404 128.099 20.8399 129.099 20.8399C130.523 20.8399 131.503 20.4664 132.038 19.7193L133.795 19.7961C133.502 20.5329 132.952 21.106 132.144 21.5154C131.346 21.9145 130.331 22.114 129.099 22.114C127.433 22.114 126.115 21.7661 125.145 21.0702C124.186 20.364 123.706 19.3099 123.706 17.9079C123.706 16.5263 124.181 15.4825 125.13 14.7763C126.09 14.0599 127.362 13.7018 128.948 13.7018C132.29 13.7018 133.962 15.2113 133.962 18.2303ZM128.948 14.9759C128.018 14.9759 127.251 15.1703 126.645 15.5592C126.039 15.9481 125.67 16.5263 125.539 17.2939H132.174C132.134 16.5775 131.826 16.0146 131.25 15.6053C130.685 15.1857 129.917 14.9759 128.948 14.9759Z"/>
<path d="M141.349 13.7018C142.743 13.7018 143.864 14.0753 144.712 14.8224C145.571 15.5694 146 16.598 146 17.9079C146 19.2178 145.571 20.2463 144.712 20.9934C143.864 21.7405 142.743 22.114 141.349 22.114C139.582 22.114 138.32 21.5409 137.562 20.3947V25H135.745V13.886H137.411V15.6667C138.118 14.3567 139.431 13.7018 141.349 13.7018ZM140.834 20.7018C141.865 20.7018 142.683 20.4459 143.288 19.9342C143.894 19.4225 144.197 18.7471 144.197 17.9079C144.197 17.0687 143.894 16.3933 143.288 15.8816C142.683 15.3699 141.865 15.114 140.834 15.114C139.794 15.114 138.971 15.3699 138.365 15.8816C137.769 16.3933 137.471 17.0687 137.471 17.9079C137.471 18.7471 137.769 19.4225 138.365 19.9342C138.971 20.4459 139.794 20.7018 140.834 20.7018Z"/>
</svg>
