<svg width="16" height="16" viewBox="0 0 16 16" fill="none" xmlns="http://www.w3.org/2000/svg">
<g opacity="0.5">
<path d="M15.4475 6.15007L15.2957 5.89598H12.6233V7.13236H12.3559V5.33951H10.9709L10.0916 4.55982H8.63755V3.8506H9.10524V2.80713H5.3982V3.8506H5.86589V4.55982H4.35204L3.47273 5.33951H1.74347V5.86126V7.93114H1.04347V6.59939H0V10.3064H1.04347V8.97464H1.74347V11.0445V11.5663H4.35204L6.1867 13.193H12.3559V11.3666H12.6233V12.603H15.2957L15.4475 12.3489C15.5041 12.2543 16 11.3633 16 9.24945C16 7.13557 15.5041 6.2447 15.4475 6.15007ZM6.90942 3.85066H7.59408V4.55988H6.90942V3.85066ZM14.654 11.5595H13.6668V10.3231H11.3124V12.1495H6.5827L4.74804 10.5228H2.78697V6.38301H3.86876L4.74807 5.60332H9.69558L10.5749 6.38301H11.3124V8.17586H13.6668V6.93948H14.654C14.775 7.29529 14.9565 8.03186 14.9565 9.24952C14.9566 10.4671 14.7751 11.2037 14.654 11.5595Z" fill="black"/>
</g>
</svg>
