<svg width="16" height="16" viewBox="0 0 16 16" fill="none" xmlns="http://www.w3.org/2000/svg">
<g opacity="0.5">
<path d="M10.3393 1.88672H5.65935C3.99935 1.88672 3.63268 2.71339 3.41935 3.72672L2.66602 7.33339H13.3327L12.5793 3.72672C12.366 2.71339 11.9993 1.88672 10.3393 1.88672Z" stroke="#0A0A0A" stroke-linecap="round" stroke-linejoin="round"/>
<path d="M14.6598 13.2133C14.7332 13.9933 14.1065 14.6666 13.3065 14.6666H12.0532C11.3332 14.6666 11.2332 14.3599 11.1065 13.9799L10.9732 13.5799C10.7865 13.0333 10.6665 12.6666 9.70649 12.6666H6.29316C5.33316 12.6666 5.19316 13.0799 5.02649 13.5799L4.89316 13.9799C4.76649 14.3599 4.66649 14.6666 3.94649 14.6666H2.69316C1.89316 14.6666 1.26649 13.9933 1.33982 13.2133L1.71316 9.15325C1.80649 8.15325 1.99982 7.33325 3.74649 7.33325H12.2532C13.9998 7.33325 14.1932 8.15325 14.2865 9.15325L14.6598 13.2133Z" stroke="#0A0A0A" stroke-linecap="round" stroke-linejoin="round"/>
<path d="M2.66667 5.33325H2" stroke="#0A0A0A" stroke-linecap="round" stroke-linejoin="round"/>
<path d="M14.0007 5.33325H13.334" stroke="#0A0A0A" stroke-linecap="round" stroke-linejoin="round"/>
<path d="M8 2V3.33333" stroke="#0A0A0A" stroke-linecap="round" stroke-linejoin="round"/>
<path d="M7 3.33325H9" stroke="#0A0A0A" stroke-linecap="round" stroke-linejoin="round"/>
<path d="M4 10H6" stroke="#0A0A0A" stroke-linecap="round" stroke-linejoin="round"/>
<path d="M10 10H12" stroke="#0A0A0A" stroke-linecap="round" stroke-linejoin="round"/>
</g>
</svg>
