<svg width="32" height="32" viewBox="0 0 32 32" fill="none" xmlns="http://www.w3.org/2000/svg">
<g opacity="0.25">
<path d="M3.05469 10.374V23.3473C3.05469 25.8806 4.85469 26.9206 7.04135 25.6673L10.1747 23.8806C10.8547 23.494 11.988 23.454 12.6947 23.814L19.6947 27.3206C20.4014 27.6673 21.5347 27.6406 22.2147 27.254L27.988 23.9473C28.7214 23.5206 29.3347 22.4806 29.3347 21.6273V8.65395C29.3347 6.12062 27.5347 5.08062 25.348 6.33395L22.2147 8.12062C21.5347 8.50729 20.4014 8.54729 19.6947 8.18729L12.6947 4.69395C11.988 4.34729 10.8547 4.37395 10.1747 4.76062L4.40135 8.06729C3.65469 8.49395 3.05469 9.53395 3.05469 10.374Z" stroke="#0A0A0A" stroke-width="1.5" stroke-linecap="round" stroke-linejoin="round"/>
<path d="M11.4141 5.33374V22.6671" stroke="#0A0A0A" stroke-width="1.5" stroke-linecap="round" stroke-linejoin="round"/>
<path d="M20.9727 8.82617V26.6662" stroke="#0A0A0A" stroke-width="1.5" stroke-linecap="round" stroke-linejoin="round"/>
</g>
</svg>
