<svg width="74" height="40" viewBox="0 0 74 40" fill="none" xmlns="http://www.w3.org/2000/svg">
<path d="M59.2974 11.5787C56.239 11.5787 53.471 12.4726 51.1131 14.012V0H44.5862V25.8225C44.5862 33.6768 51.1815 40 59.2547 40C67.3279 40 74 33.7182 74 25.748C74.0085 17.7861 67.4816 11.5787 59.2974 11.5787ZM29.6786 27.6516L23.707 12.5802H19.1365L13.1307 27.6516L7.11637 12.5802H0L10.508 39.0813H15.0785L21.3833 23.2982L27.7222 39.0813H32.2928L42.7666 12.5802H35.6844L29.6786 27.6516ZM59.2632 33.6851C54.8379 33.6851 51.1131 30.2586 51.1131 25.7894C51.1131 21.3201 54.6158 17.935 59.2974 17.935C63.979 17.935 67.4816 21.4691 67.4816 25.7894C67.4816 30.1179 63.7569 33.6851 59.2632 33.6851Z" fill="#0A0A0A"/>
</svg>
