<svg width="148" height="89" viewBox="0 0 148 89" fill="none" xmlns="http://www.w3.org/2000/svg">
<g clip-path="url(#clip0_771_2269)">
<rect width="148" height="89" rx="10" fill="#F5F5F5"/>
<g clip-path="url(#clip1_771_2269)">
<path d="M422 -228H-296V279.816H422V-228Z" fill="#005BFF"/>
<mask id="mask0_771_2269" style="mask-type:luminance" maskUnits="userSpaceOnUse" x="-296" y="-228" width="718" height="508">
<path d="M422 -228H-296V279.816H422V-228Z" fill="white"/>
</mask>
<g mask="url(#mask0_771_2269)">
<path d="M545.84 -111.264C528.862 -91.8797 510.595 -79.0316 487.582 -67.5316C469.908 -59.8514 462.891 -51.4153 444.338 -36.3408C441.392 -33.9713 438.835 -31.704 435.583 -28.8648C435.583 -28.8648 435.542 -28.8648 435.542 -28.824C423.698 -18.4066 412.693 -7.09045 400.828 3.30649C397.351 6.2683 390.253 13.9077 384.546 29.2274C379.309 39.4813 370.554 45.4049 357.994 56.9253C356.848 57.9466 355.703 59.2539 354.476 60.3978C352.409 62.3383 350.282 64.3605 348.482 66.4031C337.702 78.5975 330.849 91.9358 320.785 100.903C318.371 103.395 315.2 104.825 312.336 106.275C299.102 112.73 278.441 117.04 256.574 129.826C256.062 130.153 248.657 134.933 245.916 137.078C240.516 141.245 236.404 146.76 231.413 151.356C217.421 165.327 193.243 171.271 178.862 185.304C160.841 203.3 150.694 221.602 138.83 244.07C132.959 254.815 126.966 264.497 119.417 274.138C108.433 287.987 95.2387 297.281 80.94 315.971C69.2393 330.432 55.002 344.567 39.8443 355.393C12.7403 374.267 -9.96573 392.426 -16.1229 392.671C-16.9207 392.671 -17.4935 392.038 -17.7185 391.282C-18.7413 387.565 -13.6682 382.805 -10.3135 379.455C4.02607 365.361 47.3925 343.995 62.7343 322.425C68.5233 314.153 75.5397 305.533 80.6127 296.75C90.7179 279.489 96.6297 272.095 108.085 262.76C112.135 259.39 115.797 255.836 119.417 251.996C122.24 248.993 124.961 246.767 127.334 244.091C161.413 205.22 153.845 195.844 162.457 188.286C192.895 162.12 217.79 153.214 230.656 142.777C236.2 138.16 239.902 131.522 245.589 126.906C253.321 120.655 298.017 101.189 315.303 87.2174C316.775 86.0327 318.044 84.8479 319.107 83.7449C322.36 80.2929 326.369 74.0833 330.235 66.4031C337.968 51.1651 346.886 30.3508 357.973 15.358C363.476 7.88196 369.511 1.85622 376.118 -1.22815C376.916 -1.4324 377.632 -0.880875 377.632 -0.084259C375.095 11.1502 365.194 20.3828 357.973 28.0222C352.594 33.7211 348.462 38.7051 350.241 41.4831C352.041 44.1794 356.419 39.849 357.973 38.317C368.59 29.1661 386.264 4.55247 398.599 -6.04872C400.481 -7.6624 403.201 -10.6038 404.94 -12.34C412.263 -20.7352 417.03 -27.966 426.419 -36.3204C453.441 -60.3825 468.271 -60.1373 497.789 -83.2598C510.226 -93.0031 521.129 -102.767 529.782 -111.285C542.383 -123.745 549.992 -133.651 549.911 -137.491C549.911 -138.411 549.481 -138.962 548.561 -139.146C548.315 -139.187 547.17 -138.901 546.413 -138.39C539.642 -133.835 530.641 -123.356 518.47 -111.285C511.495 -104.36 503.496 -96.8841 494.373 -89.7145C489.075 -85.568 483.388 -81.9525 477.374 -78.9499C437.751 -59.0343 418.871 -51.4766 401.994 -37.791C400.992 -36.974 399.847 -36.3817 398.701 -35.7689C384.75 -29.3142 369.101 -14.7503 357.953 -2.8418C351.734 3.83757 346.927 9.65904 344.636 12.8251C338.09 21.9352 325.776 45.2824 307.223 66.4031C290.244 85.7876 271.977 98.6357 248.964 110.136C231.29 117.816 224.274 126.252 205.721 141.326C202.775 143.696 200.218 145.963 196.966 148.802C196.966 148.802 196.925 148.802 196.925 148.843C185.081 159.261 174.076 170.577 162.211 180.974C158.734 183.936 151.635 191.575 145.928 206.895C140.692 217.149 131.936 223.072 119.377 234.593C118.231 235.614 117.085 236.921 115.858 238.065C113.792 240.005 111.665 242.028 109.865 244.07C99.0844 256.265 92.2316 269.603 82.1674 278.57C79.7536 281.062 76.5829 282.492 73.7191 283.942C60.4842 290.397 39.8238 294.707 17.9565 307.494C17.4451 307.821 10.0401 312.6 7.299 314.745C1.89866 318.912 -2.21294 324.427 -7.20417 329.023C-21.196 342.995 -45.3748 348.939 -59.7552 362.971C-77.7768 380.967 -87.9229 399.269 -99.7871 421.738H-59.7552C-42.0814 412.546 -21.3187 410.769 -3.0312 402.945C9.0582 397.389 18.1611 387.156 27.6117 378.128C36.8372 369.324 48.0061 362.869 58.5614 355.843C71.6531 345.405 84.1311 333.415 93.5204 319.463C96.691 315.031 100.803 311.334 105.017 307.902C109.783 304.001 114.754 300.304 119.397 296.259C125.186 291.357 127.129 293.42 161.72 257.878C165.77 253.732 168.737 250.75 172.664 247.87C174.648 246.521 176.755 245.092 178.842 244.029C196.516 234.838 217.278 233.061 235.566 225.237C247.655 219.681 256.758 209.448 266.209 200.419C275.434 191.616 286.603 185.161 297.158 178.134C310.25 167.697 322.728 155.706 332.117 141.755C335.288 137.323 339.4 133.626 343.613 130.194C348.38 126.293 353.35 122.596 357.994 118.551C363.783 113.649 365.726 115.712 400.317 80.1703C404.367 76.0238 407.333 73.0416 411.261 70.1615C413.245 68.8134 415.352 67.3835 417.439 66.3214C435.112 57.1296 455.875 55.3525 474.163 47.5293C486.252 41.9733 495.355 31.7398 504.806 22.7114C514.031 13.9077 525.2 7.45302 535.755 0.426392C548.847 -10.0114 561.325 -22.0016 570.714 -35.9527C573.885 -40.3852 577.997 -44.0823 582.21 -47.5139C586.977 -51.4154 591.947 -55.1125 596.591 -59.1569V-81.3193C585.606 -67.4704 572.412 -58.1764 558.113 -39.4864C546.413 -25.0247 532.175 -10.8897 517.018 -0.0638428C489.914 18.81 467.208 36.9689 461.05 37.214C460.253 37.214 459.68 36.5808 459.475 35.825C458.453 32.1075 463.526 27.3481 466.88 23.9982C481.22 9.90414 524.586 -11.4617 539.928 -33.0318C545.717 -41.3044 552.734 -49.9242 557.807 -58.7075C567.912 -75.9677 573.824 -83.3619 585.279 -92.6967C589.329 -96.067 592.991 -99.6212 596.611 -103.461V-120.864C595.466 -119.843 594.32 -118.536 593.093 -117.392C591.027 -115.452 588.899 -113.429 587.099 -111.387C576.319 -99.1923 569.466 -85.854 559.402 -76.8868C556.988 -74.3948 553.818 -72.965 550.954 -71.5148C537.719 -65.0601 517.059 -60.7501 495.191 -47.9633C494.68 -47.6569 487.275 -42.8568 484.534 -40.712C479.133 -36.5451 475.022 -31.03 470.031 -26.4341C456.039 -12.4625 431.86 -6.51852 417.479 7.51428C399.458 25.5098 389.312 43.8117 377.447 66.2805C371.577 77.0247 365.583 86.7067 358.035 96.3479C347.05 110.197 333.856 119.491 319.557 138.181C307.857 152.643 293.619 166.777 278.462 177.603C251.358 196.477 228.652 214.636 222.494 214.881C221.697 214.881 221.124 214.248 220.899 213.492C219.876 209.775 224.949 205.015 228.304 201.665C242.643 187.571 286.01 166.206 301.352 144.635C307.141 136.363 314.157 127.743 319.23 118.96C329.335 101.7 335.247 94.3053 346.702 84.9705C350.753 81.6002 354.414 78.046 358.035 74.2059C360.858 71.2032 363.578 68.9768 365.951 66.3009C400.031 27.4299 392.462 18.0542 401.074 10.4965C431.512 -15.6695 456.407 -24.5753 469.274 -35.0131C474.817 -39.6294 478.52 -46.2679 484.206 -50.8843C491.939 -57.1347 536.635 -76.6009 553.92 -90.5724C555.393 -91.7571 556.661 -92.9418 557.725 -94.0449C560.977 -97.4969 564.987 -103.706 568.853 -111.387C576.585 -126.625 585.504 -147.439 596.591 -162.432V-180.632C590.372 -173.952 585.565 -168.131 583.274 -164.965C576.728 -155.752 564.393 -132.405 545.84 -111.264ZM-68.3262 408.481C-70.9446 410.667 -76.6518 416.631 -76.8768 416.917C-78.9019 418.939 -84.7318 420.287 -84.0977 415.732C-83.5045 412.566 -78.0018 406.581 -75.2198 401.413C-68.1626 389.403 -59.7757 376.167 -46.8476 369.753C-40.0767 366.383 -33.224 365.075 -24.3053 360.602C-8.8202 352.881 3.06465 341.36 14.6222 328.635C17.5474 325.714 20.1862 322.425 22.8659 319.259C31.7028 310.435 45.4082 306.595 56.3112 300.937C63.7162 295.79 73.4941 288.783 74.3737 293.134C74.3737 294.155 73.3509 295.381 71.6736 296.811C67.3165 300.406 58.6432 305.165 52.0155 310.496C48.5789 313.274 46.4106 316.502 43.9763 320.158C35.4462 332.618 16.5041 333.741 -11.0703 367.608C-18.4344 376.575 -27.8032 383.398 -37.5811 389.485C-49.2205 396.675 -58.7324 400.515 -68.3262 408.481ZM393.076 60.3365C393.669 57.1704 399.172 51.1855 401.954 46.0177C409.011 34.0071 417.398 20.7709 430.326 14.3571C437.097 10.9867 443.949 9.67946 452.868 5.20612C468.353 -2.515 480.238 -14.0354 491.796 -26.7609C494.721 -29.6818 497.36 -32.9705 500.039 -36.1365C508.876 -44.9607 522.582 -48.8008 533.485 -54.4589C540.89 -59.6063 550.667 -66.6124 551.547 -62.2617C551.547 -61.2404 550.524 -60.0148 548.847 -58.5849C544.49 -54.9899 535.817 -50.2306 529.189 -44.8994C525.752 -42.1214 523.584 -38.8941 521.15 -35.2378C512.62 -22.7778 493.678 -21.6544 466.103 12.2123C458.739 21.1794 449.37 28.0018 439.592 34.0888C427.932 41.2992 418.42 45.1394 408.847 53.0852C406.229 55.2708 400.522 61.2352 400.297 61.5212C398.271 63.523 392.421 64.8915 393.076 60.3365ZM310.27 119.103C305.913 122.698 297.24 127.457 290.612 132.788C287.176 135.566 285.007 138.794 282.573 142.45C274.043 154.91 255.101 156.033 227.527 189.9C220.163 198.867 210.794 205.689 201.016 211.776C189.356 218.987 179.844 222.827 170.271 230.773C167.652 232.958 161.945 238.923 161.72 239.209C159.695 241.231 153.865 242.579 154.499 238.024C155.092 234.858 160.595 228.873 163.377 223.705C170.434 211.695 178.821 198.459 191.749 192.045C198.52 188.674 205.373 187.367 214.292 182.894C229.777 175.173 241.662 163.652 253.219 150.927C256.144 148.006 258.783 144.717 261.463 141.551C270.3 132.727 284.005 128.887 294.908 123.229C302.313 118.081 312.091 111.075 312.971 115.426C312.971 116.447 311.948 117.673 310.27 119.103Z" fill="#F1117E"/>
<path d="M466.86 -153.567C481.2 -167.661 524.566 -189.027 539.908 -210.597C545.697 -218.87 552.714 -227.49 557.787 -236.273C567.892 -253.533 573.804 -260.927 585.259 -270.262C589.309 -273.632 592.971 -277.186 596.591 -281.027V-288.931H587.079C576.299 -276.737 569.446 -263.399 559.382 -254.432C556.968 -251.94 553.798 -250.51 550.934 -249.06C537.699 -242.605 517.039 -238.295 495.171 -225.508C494.66 -225.202 487.255 -220.402 484.514 -218.257C479.114 -214.09 475.002 -208.575 470.011 -203.979C456.019 -190.007 431.84 -184.063 417.46 -170.03C399.438 -152.035 389.292 -133.733 377.427 -111.264C371.557 -100.52 365.563 -90.838 358.015 -81.1969C347.03 -67.3479 333.836 -58.0539 319.537 -39.364C307.837 -24.9022 293.599 -10.7672 278.442 0.0586548C251.338 18.9325 228.632 37.0914 222.475 37.3365C221.677 37.3365 221.104 36.7033 220.879 35.9475C219.856 32.2299 224.929 27.4706 228.284 24.1207C242.624 10.0266 285.99 -11.3392 301.332 -32.9093C307.121 -41.1819 314.137 -49.8017 319.21 -58.585C329.315 -75.8452 335.227 -83.2395 346.682 -92.5742C350.733 -95.9446 354.394 -99.4987 358.015 -103.339C360.838 -106.342 363.558 -108.568 365.931 -111.244C400.011 -150.115 392.442 -159.491 401.054 -167.048C431.492 -193.214 456.387 -202.12 469.254 -212.558C474.797 -217.174 478.5 -223.813 484.187 -228.429C491.919 -234.68 536.615 -254.146 553.9 -268.117C555.373 -269.302 556.641 -270.487 557.705 -271.59C560.957 -275.042 564.967 -281.251 568.833 -288.931H545.84C528.862 -269.547 510.595 -256.699 487.582 -245.199C469.908 -237.519 462.892 -229.083 444.339 -214.008C441.393 -211.639 438.836 -209.371 435.583 -206.532C435.583 -206.532 435.543 -206.532 435.543 -206.491C423.699 -196.074 412.693 -184.758 400.829 -174.361C397.352 -171.399 390.253 -163.76 384.546 -148.44C379.309 -138.186 370.554 -132.262 357.994 -120.742C356.849 -119.721 355.703 -118.413 354.476 -117.27C352.41 -115.329 350.283 -113.307 348.482 -111.264C337.702 -99.0698 330.85 -85.7315 320.785 -76.7644C318.371 -74.2724 315.201 -72.8425 312.337 -71.3923C299.102 -64.9376 278.442 -60.6277 256.574 -47.8408C256.063 -47.5344 248.658 -42.7343 245.917 -40.5895C240.517 -36.4226 236.405 -30.9075 231.414 -26.3116C217.422 -12.3401 193.243 -6.39606 178.863 7.63675C160.841 25.6323 150.695 43.9342 138.831 66.403C132.96 77.1472 126.966 86.8292 119.418 96.4704C108.433 110.319 95.2392 119.613 80.9406 138.303C69.2398 152.765 55.0025 166.9 39.8448 177.726C12.7408 196.6 -9.96524 214.759 -16.1224 215.004C-16.9202 215.004 -17.493 214.37 -17.718 213.615C-18.7408 209.897 -13.6677 205.138 -10.313 201.788C4.02655 187.694 47.3929 166.328 62.7348 144.758C68.5238 136.485 75.5402 127.865 80.6132 119.082C90.7184 101.822 96.6302 94.4278 108.085 85.093C112.136 81.7227 115.797 78.1685 119.418 74.3284C122.241 71.3257 124.962 69.0993 127.334 66.4234C161.414 27.5523 153.845 18.1767 162.457 10.619C192.895 -15.547 217.79 -24.4528 230.657 -34.8906C236.2 -39.5069 239.903 -46.1455 245.59 -50.7618C253.322 -57.0122 298.018 -76.4784 315.303 -90.4499C316.776 -91.6346 318.044 -92.8194 319.108 -93.9224C322.36 -97.3744 326.37 -103.584 330.236 -111.264C337.968 -126.502 346.887 -147.317 357.974 -162.309C363.477 -169.785 369.511 -175.811 376.118 -178.895C376.916 -179.1 377.632 -178.548 377.632 -177.752C375.096 -166.517 365.195 -157.285 357.974 -149.645C352.594 -143.946 348.462 -138.962 350.242 -136.184C352.042 -133.488 356.419 -137.818 357.974 -139.35C368.591 -148.501 386.264 -173.115 398.599 -183.716C400.481 -185.33 403.202 -188.271 404.941 -190.007C412.264 -198.402 417.03 -205.633 426.419 -213.988C453.441 -238.05 468.272 -237.805 497.79 -260.927C510.227 -270.67 521.13 -280.434 529.783 -288.952H518.491C511.516 -282.027 503.517 -274.551 494.394 -267.382C489.096 -263.235 483.409 -259.62 477.395 -256.617C437.772 -236.702 418.891 -229.144 402.015 -215.458C401.013 -214.641 399.868 -214.049 398.722 -213.436C384.771 -206.981 369.122 -192.418 357.974 -180.509C351.755 -173.83 346.948 -168.008 344.657 -164.842C338.111 -155.732 325.797 -132.385 307.244 -111.264C290.265 -91.8798 271.998 -79.0317 248.985 -67.5317C231.311 -59.8515 224.295 -51.4154 205.742 -36.3409C202.796 -33.9715 200.239 -31.7041 196.987 -28.8649C196.987 -28.8649 196.946 -28.8649 196.946 -28.824C185.102 -18.4067 174.096 -7.09052 162.232 3.30643C158.755 6.26822 151.656 13.9076 145.949 29.2273C140.713 39.4813 131.957 45.4048 119.398 56.9252C118.252 57.9465 117.106 59.2538 115.879 60.3977C113.813 62.3382 111.686 64.3604 109.886 66.403C99.1053 78.5974 92.2527 91.9358 82.1884 100.903C79.7746 103.395 76.6039 104.825 73.7401 106.275C60.5052 112.73 39.8448 117.04 17.9774 129.826C17.4661 130.153 10.061 134.933 7.31998 137.078C1.91962 141.245 -2.19202 146.76 -7.18323 151.356C-21.175 165.327 -45.3538 171.271 -59.7343 185.304C-77.7559 203.299 -87.902 221.601 -99.7662 244.07C-105.637 254.814 -111.631 264.496 -119.179 274.138C-130.164 287.987 -143.358 297.281 -157.656 315.971C-169.357 330.432 -183.594 344.567 -198.752 355.393C-225.856 374.267 -248.562 392.426 -254.719 392.671C-255.517 392.671 -256.09 392.038 -256.294 391.282C-257.317 387.564 -252.244 382.805 -248.889 379.455C-234.55 365.361 -191.184 343.995 -175.842 322.425C-170.053 314.153 -163.036 305.533 -157.963 296.749C-147.858 279.489 -141.946 272.095 -130.491 262.76C-126.441 259.39 -122.779 255.836 -119.159 251.996C-116.336 248.993 -113.615 246.766 -111.242 244.091C-77.1627 205.22 -84.7313 195.844 -76.1194 188.286C-45.6811 162.12 -20.7863 153.214 -7.91965 142.777C-2.3761 138.16 1.32642 131.522 7.01312 126.905C14.7455 120.655 59.4414 101.189 76.7266 87.2173C78.1994 86.0326 79.4677 84.8479 80.5314 83.7448C83.7839 80.2928 87.7932 74.0833 91.6594 66.403C99.3917 51.165 108.31 30.3507 119.398 15.3579C124.9 7.8819 130.935 1.85614 137.542 -1.22821C138.34 -1.4325 139.056 -0.880951 139.056 -0.0843201C136.519 11.1501 126.618 20.3827 119.398 28.0221C114.018 33.721 109.886 38.705 111.665 41.483C113.465 44.1793 117.843 39.8489 119.398 38.317C130.014 29.166 147.688 4.5524 160.023 -6.0488C161.905 -7.66248 164.625 -10.6038 166.364 -12.3401C173.687 -20.7352 178.454 -27.9661 187.843 -36.3204C214.865 -60.3825 229.695 -60.1374 259.213 -83.2599C271.65 -93.0032 282.553 -102.767 291.206 -111.285C303.807 -123.745 311.417 -133.651 311.335 -137.492C311.335 -138.411 310.905 -138.962 309.985 -139.146C309.739 -139.187 308.594 -138.901 307.837 -138.39C301.066 -133.835 292.065 -123.357 279.894 -111.285C272.919 -104.36 264.92 -96.8842 255.797 -89.7146C250.499 -85.5681 244.812 -81.9526 238.798 -78.95C199.175 -59.0344 180.295 -51.4767 163.418 -37.7912C162.416 -36.9741 161.271 -36.3817 160.125 -35.769C146.174 -29.3143 130.525 -14.7504 119.377 -2.84186C113.158 3.83749 108.351 9.65897 106.06 12.825C99.5145 21.9351 87.2 45.2823 68.6466 66.403C51.6682 85.7875 33.4012 98.6356 10.3883 110.136C-7.28549 117.816 -14.3018 126.252 -32.8553 141.326C-35.8009 143.696 -38.3579 145.963 -41.6104 148.802C-41.6104 148.802 -41.6513 148.802 -41.6513 148.843C-53.4952 159.261 -64.5005 170.577 -76.3649 180.974C-79.8424 183.935 -86.9406 191.575 -92.6477 206.895C-97.8844 217.148 -106.639 223.072 -119.199 234.592C-120.345 235.614 -121.49 236.921 -122.718 238.065C-124.784 240.005 -126.911 242.028 -128.711 244.07C-139.491 256.265 -146.344 269.603 -156.409 278.57C-158.822 281.062 -161.993 282.492 -164.857 283.942C-178.092 290.397 -198.752 294.707 -220.619 307.494C-221.131 307.82 -228.536 312.6 -231.277 314.745C-236.677 318.912 -240.789 324.427 -245.78 329.023C-259.772 342.994 -283.951 348.938 -298.331 362.971C-316.353 380.967 -326.499 399.269 -338.363 421.737H-298.311C-280.637 412.546 -259.874 410.769 -241.587 402.945C-229.497 397.389 -220.394 387.156 -210.944 378.127C-201.718 369.324 -190.549 362.869 -179.994 355.842C-166.902 345.405 -154.424 333.414 -145.035 319.463C-141.864 315.031 -137.753 311.334 -133.539 307.902C-128.773 304.001 -123.802 300.304 -119.159 296.259C-113.37 291.357 -111.426 293.42 -76.8354 257.878C-72.7851 253.732 -69.819 250.75 -65.8915 247.869C-63.9073 246.521 -61.8003 245.091 -59.7138 244.029C-42.04 234.838 -21.2773 233.06 -2.98978 225.237C9.09961 219.681 18.2025 209.448 27.653 200.419C36.8786 191.616 48.0475 185.161 58.6028 178.134C71.6945 167.697 84.1725 155.706 93.5618 141.755C96.7325 137.323 100.844 133.626 105.058 130.194C109.824 126.293 114.795 122.596 119.438 118.551C125.227 113.649 127.171 115.712 161.762 80.1703C165.812 76.0237 168.778 73.0415 172.705 70.1614C174.69 68.8133 176.797 67.3835 178.883 66.3213C196.557 57.1295 217.32 55.3524 235.607 47.5292C247.697 41.9732 256.799 31.7397 266.25 22.7113C275.476 13.9076 286.644 7.45294 297.2 0.426331C310.291 -10.0115 322.77 -22.0017 332.159 -35.9528C335.329 -40.3853 339.441 -44.0824 343.655 -47.514C348.421 -51.4154 353.392 -55.1126 358.035 -59.157C363.824 -64.0593 365.768 -61.9962 400.358 -97.5378C404.409 -101.684 407.375 -104.667 411.302 -107.547C413.287 -108.895 415.393 -110.325 417.48 -111.387C435.154 -120.579 455.917 -122.356 474.204 -130.179C486.293 -135.735 495.396 -145.968 504.847 -154.997C514.073 -163.8 525.241 -170.255 535.797 -177.282C548.888 -187.72 561.366 -199.71 570.756 -213.661C573.926 -218.093 578.038 -221.791 582.252 -225.222C587.018 -229.124 591.989 -232.821 596.632 -236.865V-258.885C585.648 -245.036 572.453 -235.742 558.155 -217.052C546.454 -202.59 532.217 -188.455 517.059 -177.629C489.955 -158.755 467.249 -140.596 461.092 -140.351C460.294 -140.351 459.721 -140.984 459.517 -141.74C458.412 -145.458 463.506 -150.217 466.86 -153.567ZM-306.923 408.481C-309.541 410.666 -315.248 416.631 -315.473 416.917C-317.498 418.939 -323.328 420.287 -322.694 415.732C-322.101 412.566 -316.598 406.581 -313.816 401.413C-306.759 389.403 -298.372 376.167 -285.444 369.753C-278.673 366.382 -271.82 365.075 -262.902 360.602C-247.417 352.881 -235.532 341.36 -223.974 328.635C-221.049 325.714 -218.41 322.425 -215.731 319.259C-206.894 310.435 -193.188 306.595 -182.285 300.937C-174.88 295.789 -165.102 288.783 -164.223 293.134C-164.223 294.155 -165.246 295.381 -166.923 296.811C-171.28 300.406 -179.953 305.165 -186.581 310.496C-190.018 313.274 -192.186 316.502 -194.62 320.158C-203.15 332.618 -222.092 333.741 -249.667 367.608C-257.031 376.575 -266.4 383.397 -276.177 389.484C-287.817 396.674 -297.329 400.515 -306.923 408.481ZM-68.3257 230.773C-70.9441 232.958 -76.6513 238.923 -76.8763 239.209C-78.9014 241.231 -84.7313 242.579 -84.0972 238.024C-83.504 234.858 -78.0013 228.873 -75.2194 223.705C-68.1621 211.695 -59.7752 198.458 -46.8471 192.045C-40.0762 188.674 -33.2235 187.367 -24.3048 182.894C-8.8197 175.173 3.06516 163.652 14.6227 150.927C17.5479 148.006 20.1867 144.717 22.8664 141.551C31.7033 132.727 45.4088 128.887 56.3117 123.229C63.7167 118.081 73.4946 111.075 74.3742 115.426C74.3742 116.447 73.3514 117.673 71.674 119.103C67.317 122.698 58.6437 127.457 52.016 132.788C48.5794 135.566 46.4111 138.793 43.9768 142.45C35.4467 154.91 16.5046 156.033 -11.0698 189.9C-18.4339 198.867 -27.8027 205.689 -37.5806 211.776C-49.22 218.987 -58.732 222.827 -68.3257 230.773ZM170.251 53.0851C167.632 55.2707 161.925 61.2352 161.7 61.5211C159.675 63.5433 153.845 64.8914 154.479 60.3364C155.073 57.1703 160.575 51.1855 163.357 46.0176C170.414 34.007 178.801 20.7708 191.729 14.357C198.5 10.9867 205.353 9.67938 214.272 5.20602C229.757 -2.51508 241.642 -14.0355 253.199 -26.761C256.124 -29.6819 258.763 -32.9706 261.443 -36.1366C270.28 -44.9608 283.985 -48.8009 294.888 -54.4589C302.293 -59.6063 312.071 -66.6125 312.951 -62.2617C312.951 -61.2404 311.928 -60.0149 310.25 -58.585C305.893 -54.99 297.22 -50.2307 290.592 -44.8995C287.156 -42.1215 284.988 -38.8942 282.553 -35.2379C274.023 -22.7779 255.081 -21.6544 227.507 12.2122C220.143 21.1794 210.774 28.0017 200.996 34.0887C189.357 41.2992 179.845 45.1393 170.251 53.0851ZM439.593 -143.599C427.933 -136.389 418.421 -132.548 408.848 -124.603C406.229 -122.417 400.522 -116.452 400.297 -116.167C398.272 -114.144 392.442 -112.796 393.076 -117.351C393.669 -120.517 399.172 -126.502 401.954 -131.67C409.011 -143.681 417.398 -156.917 430.326 -163.331C437.097 -166.701 443.95 -168.008 452.869 -172.482C468.354 -180.203 480.239 -191.723 491.796 -204.449C494.721 -207.37 497.36 -210.658 500.04 -213.824C508.877 -222.648 522.582 -226.489 533.485 -232.147C540.89 -237.294 550.668 -244.3 551.548 -239.949C551.548 -238.928 550.525 -237.703 548.847 -236.273C544.49 -232.678 535.817 -227.918 529.189 -222.587C525.753 -219.809 523.584 -216.582 521.15 -212.926C512.62 -200.466 493.678 -199.342 466.104 -165.475C458.76 -156.529 449.371 -149.706 439.593 -143.599Z" fill="#F1117E"/>
<path d="M543.836 -165.639C539.786 -160.532 535.04 -156.1 529.599 -152.546C513.111 -141.658 507.056 -143.762 475.943 -114.389C474.838 -113.368 473.693 -112.245 472.527 -111.264C471.647 -110.508 470.788 -109.712 469.868 -109.017C454.301 -96.9455 417.439 -71.3514 411.528 -73.1693C411.2 -73.2919 411.016 -73.5983 411.139 -73.966C415.291 -88.775 449.31 -101.786 453.114 -107.322C453.401 -107.71 453.503 -108.895 451.928 -108.895C415.435 -109.61 412.305 -80.6862 401.668 -70.9429C401.422 -70.7795 366.954 -49.7405 357.995 -39.6295C357.115 -38.6694 356.522 -37.6481 355.622 -36.2183C345.823 -20.8986 332.036 -21.9812 305.239 12.0693C301.189 17.1758 296.443 21.6083 291.002 25.1625C274.514 36.0497 268.459 33.9457 237.346 63.3186C236.242 64.34 235.096 65.4634 233.93 66.4439C233.05 67.1996 232.191 67.9962 231.271 68.6907C215.704 80.7626 178.842 106.357 172.931 104.539C172.603 104.416 172.419 104.11 172.542 103.742C176.695 88.9331 210.713 75.9216 214.517 70.3861C214.804 69.998 214.906 68.8133 213.331 68.8133C176.838 68.0984 173.708 97.0219 163.071 106.765C162.825 106.929 128.357 127.968 119.398 138.079C118.518 139.039 117.925 140.06 117.025 141.49C107.227 156.809 93.4393 155.727 66.6421 189.777C62.5919 194.884 57.8461 199.316 52.4048 202.871C35.9174 213.758 29.8625 211.654 -1.25081 241.027C-2.35542 242.048 -3.50098 243.172 -4.66695 244.152C-5.54655 244.908 -6.4057 245.704 -7.32622 246.399C-22.8931 258.471 -59.7545 284.065 -65.6663 282.247C-65.9731 282.124 -66.1777 281.818 -66.0549 281.45C-61.9024 266.641 -27.8843 253.63 -24.0795 248.094C-23.7932 247.706 -23.6909 246.521 -25.266 246.521C-61.7592 245.807 -64.8889 274.73 -75.526 284.473C-75.7714 284.637 -110.239 305.676 -119.199 315.787C-120.079 316.747 -120.672 317.768 -121.572 319.198C-131.37 334.518 -145.157 333.435 -171.955 367.485C-176.005 372.592 -180.751 377.024 -186.192 380.579C-202.679 391.466 -208.734 389.362 -239.848 418.735C-240.952 419.756 -242.098 420.88 -243.264 421.86H-223.053C-196.972 400.801 -188.933 398.942 -169.234 385.808C-163.445 381.927 -158.147 377.147 -153.544 371.673C-142.457 358.396 -131.329 348.06 -119.219 335.968C-107.11 323.875 -89.5791 311.375 -75.1169 298.649C-63.3547 289.355 -46.7446 288.007 -18.3724 270.788C-12.7879 267.417 -7.5103 263.536 -2.60089 259.267C4.21091 253.323 10.3681 248.298 15.5025 244.152C41.5837 223.093 49.6229 221.234 69.3218 208.1C75.1108 204.219 80.4089 199.439 85.0115 193.965C96.0985 180.688 107.227 170.352 119.336 158.26C131.446 146.167 148.977 133.667 163.439 120.941C175.201 111.647 191.811 110.299 220.184 93.0797C225.768 89.7093 231.046 85.8283 235.955 81.5593C242.767 75.6152 248.924 70.5904 254.059 66.4439C280.14 45.3844 288.179 43.5256 307.878 30.3916C313.667 26.5106 318.965 21.7309 323.568 16.2567C334.655 2.97961 345.783 -7.35606 357.892 -19.4484C371.496 -33.0318 387.533 -44.0415 401.995 -56.7671C413.757 -66.061 430.367 -67.4091 458.74 -84.6284C464.324 -87.9988 469.602 -91.8798 474.511 -96.1488C481.323 -102.093 487.48 -107.118 492.615 -111.264C518.696 -132.324 526.735 -134.182 546.434 -147.317C552.223 -151.197 557.521 -155.977 562.124 -161.451C573.211 -174.728 584.339 -185.064 596.448 -197.156V-217.338C595.569 -216.378 594.976 -215.356 594.076 -213.926C584.42 -198.607 570.613 -199.669 543.836 -165.639Z" fill="#F1117E"/>
<path d="M545.84 66.4234C528.862 85.8079 510.595 98.656 487.582 110.156C469.908 117.836 462.891 126.272 444.338 141.347C441.392 143.716 438.835 145.984 435.583 148.823C435.583 148.823 435.542 148.823 435.542 148.864C423.698 159.281 412.693 170.597 400.828 180.994C397.351 183.956 390.253 191.595 384.546 206.915C379.309 217.169 370.554 223.093 357.994 234.613C356.848 235.634 355.703 236.941 354.476 238.085C352.409 240.026 350.282 242.048 348.482 244.091C337.702 256.285 330.849 269.623 320.785 278.591C318.371 281.083 315.2 282.512 312.336 283.963C299.102 290.417 278.441 294.727 256.574 307.514C256.063 307.841 248.657 312.621 245.916 314.765C240.516 318.932 236.404 324.447 231.413 329.043C217.421 343.015 193.243 348.959 178.862 362.992C160.82 381.048 150.694 399.33 138.83 421.799H178.862C196.536 412.607 217.299 410.83 235.586 403.007C247.676 397.451 256.778 387.217 266.229 378.189C275.455 369.385 286.624 362.93 297.179 355.904C310.27 345.466 322.749 333.476 332.138 319.525C335.308 315.092 339.42 311.395 343.634 307.963C348.4 304.062 353.371 300.365 358.014 296.32C363.803 291.418 365.747 293.481 400.338 257.94C404.388 253.793 407.354 250.811 411.281 247.931C413.266 246.583 415.373 245.153 417.459 244.091C435.133 234.899 455.896 233.122 474.183 225.299C486.273 219.743 495.375 209.509 504.826 200.481C514.052 191.677 525.22 185.222 535.776 178.196C548.867 167.758 561.345 155.768 570.735 141.817C573.905 137.384 578.017 133.687 582.231 130.255C586.997 126.354 591.968 122.657 596.611 118.612V96.45C585.627 110.299 572.432 119.593 558.134 138.283C546.433 152.745 532.196 166.88 517.038 177.705C489.934 196.579 467.228 214.738 461.071 214.983C460.273 214.983 459.7 214.35 459.496 213.594C458.473 209.877 463.546 205.117 466.901 201.768C481.24 187.673 524.607 166.308 539.949 144.738C545.738 136.465 552.754 127.845 557.827 119.062C567.932 101.802 573.844 94.4073 585.299 85.0726C589.349 81.7022 593.011 78.1481 596.632 74.308V56.9048C595.486 57.9261 594.341 59.2334 593.113 60.3773C591.047 62.3178 588.92 64.34 587.12 66.3826C576.34 78.577 569.487 91.9153 559.423 100.882C557.009 103.374 553.838 104.804 550.974 106.255C537.739 112.709 517.079 117.019 495.212 129.806C494.7 130.133 487.295 134.913 484.554 137.057C479.154 141.224 475.042 146.739 470.051 151.335C456.059 165.307 431.88 171.251 417.5 185.284C399.478 203.279 389.332 221.581 377.468 244.05C371.597 254.794 365.604 264.476 358.055 274.117C347.071 287.966 333.877 297.26 319.578 315.95C307.877 330.412 293.64 344.547 278.482 355.373C251.378 374.247 228.672 392.405 222.515 392.651C221.717 392.651 221.144 392.017 220.919 391.262C219.897 387.544 224.97 382.785 228.324 379.435C242.664 365.341 286.03 343.975 301.372 322.405C307.161 314.132 314.178 305.512 319.251 296.729C329.356 279.469 335.268 272.075 346.723 262.74C350.773 259.369 354.435 255.815 358.055 251.975C360.878 248.973 363.599 246.746 365.972 244.07C400.051 205.199 392.482 195.824 401.094 188.266C431.533 162.1 456.427 153.194 469.294 142.756C474.838 138.14 478.54 131.501 484.227 126.885C491.959 120.635 536.655 101.168 553.94 87.1969C555.413 86.0122 556.682 84.8274 557.745 83.7244C560.998 80.2724 565.007 74.0628 568.873 66.3826C576.605 51.1446 585.524 30.3303 596.611 15.3375V-2.8623C590.393 3.81707 585.586 9.63855 583.295 12.8046C576.728 21.9351 564.393 45.2823 545.84 66.4234ZM393.076 238.024C393.669 234.858 399.172 228.873 401.954 223.705C409.011 211.695 417.398 198.458 430.326 192.045C437.097 188.674 443.949 187.367 452.868 182.894C468.353 175.173 480.238 163.652 491.796 150.927C494.721 148.006 497.36 144.717 500.039 141.551C508.876 132.727 522.582 128.887 533.485 123.229C540.89 118.081 550.667 111.075 551.547 115.426C551.547 116.447 550.524 117.673 548.847 119.103C544.49 122.698 535.817 127.457 529.189 132.788C525.752 135.566 523.584 138.794 521.15 142.45C512.62 154.91 493.678 156.033 466.103 189.9C458.739 198.867 449.37 205.689 439.592 211.776C427.932 218.987 418.42 222.827 408.847 230.773C406.229 232.958 400.522 238.923 400.297 239.209C398.271 241.231 392.421 242.579 393.076 238.024ZM310.27 296.79C305.913 300.385 297.24 305.145 290.612 310.476C287.176 313.254 285.007 316.481 282.573 320.137C274.043 332.597 255.101 333.721 227.527 367.588C220.163 376.555 210.794 383.377 201.016 389.464C189.356 396.674 179.844 400.515 170.271 408.46C167.652 410.646 161.945 416.61 161.72 416.896C159.695 418.919 153.865 420.267 154.499 415.712C155.092 412.546 160.595 406.561 163.377 401.393C170.434 389.382 178.821 376.146 191.749 369.732C198.52 366.362 205.373 365.055 214.292 360.581C229.777 352.86 241.662 341.34 253.219 328.614C256.144 325.693 258.783 322.405 261.463 319.239C270.3 310.415 284.005 306.574 294.908 300.916C302.313 295.769 312.091 288.763 312.971 293.114C312.971 294.135 311.948 295.36 310.27 296.79Z" fill="#F1117E"/>
<path d="M543.835 12.0489C539.785 17.1555 535.039 21.588 529.598 25.1421C513.11 36.0293 507.055 33.9254 475.942 63.2983C474.837 64.3196 473.692 65.4431 472.526 66.4235C471.646 67.1793 470.787 67.9759 469.867 68.6704C454.3 80.7423 417.438 106.336 411.527 104.518C411.199 104.396 411.015 104.089 411.138 103.722C415.29 88.9128 449.309 75.9013 453.113 70.3658C453.4 69.9777 453.502 68.793 451.927 68.793C415.434 68.078 412.304 97.0016 401.667 106.745C401.421 106.908 366.953 127.947 357.994 138.058C357.114 139.018 356.521 140.04 355.621 141.469C345.822 156.789 332.035 155.706 305.238 189.757C301.188 194.864 296.442 199.296 291.001 202.85C274.513 213.737 268.458 211.634 237.345 241.006C236.24 242.028 235.095 243.151 233.929 244.132C233.049 244.887 232.19 245.684 231.27 246.378C215.703 258.45 178.841 284.044 172.93 282.226C172.602 282.104 172.418 281.798 172.541 281.43C176.694 266.621 210.712 253.609 214.516 248.074C214.803 247.686 214.905 246.501 213.33 246.501C176.837 245.786 173.707 274.71 163.07 284.453C162.824 284.616 128.356 305.655 119.397 315.766C118.517 316.726 117.924 317.748 117.024 319.178C107.225 334.497 93.4383 333.415 66.6411 367.465C62.5909 372.572 57.8451 377.004 52.4038 380.558C35.9164 391.445 29.8615 389.342 -1.25183 418.714C-2.35644 419.736 -3.50199 420.859 -4.66797 421.84H15.5424C41.6236 400.78 49.6627 398.921 69.3617 385.787C75.1507 381.906 80.4488 377.127 85.0514 371.652C96.1384 358.375 107.266 348.04 119.376 335.947C131.486 323.855 149.017 311.354 163.479 298.629C175.241 289.335 191.851 287.987 220.224 270.767C225.808 267.397 231.086 263.516 235.995 259.247C242.807 253.303 248.964 248.278 254.098 244.132C280.18 223.072 288.219 221.213 307.918 208.079C313.707 204.198 319.005 199.419 323.607 193.944C334.694 180.667 345.822 170.332 357.932 158.239C371.535 144.656 387.573 133.646 402.035 120.921C413.797 111.627 430.407 110.279 458.78 93.0593C464.364 89.689 469.642 85.808 474.551 81.5389C481.363 75.5949 487.52 70.57 492.654 66.4235C518.736 45.3641 526.775 43.5053 546.474 30.3712C552.263 26.4903 557.561 21.7105 562.163 16.2363C573.25 2.95925 584.378 -7.3764 596.488 -19.4687V-39.6294C595.609 -38.6694 595.015 -37.648 594.115 -36.2182C584.419 -20.919 570.612 -21.9812 543.835 12.0489Z" fill="#F1117E"/>
<path d="M162.457 366.015C192.896 339.849 217.79 330.943 230.657 320.505C236.201 315.889 239.903 309.25 245.59 304.634C253.322 298.384 298.018 278.917 315.303 264.946C316.776 263.761 318.044 262.576 319.108 261.473C322.361 258.021 326.37 251.812 330.236 244.131C337.968 228.893 346.887 208.079 357.974 193.086C363.477 185.61 369.511 179.585 376.118 176.5C376.916 176.296 377.632 176.848 377.632 177.644C375.096 188.879 365.195 198.111 357.974 205.751C352.594 211.45 348.462 216.434 350.242 219.211C352.042 221.908 356.42 217.577 357.974 216.045C368.591 206.894 386.265 182.281 398.599 171.68C400.481 170.066 403.202 167.125 404.941 165.388C412.264 156.993 417.03 149.762 426.419 141.408C453.442 117.346 468.272 117.591 497.79 94.4686C510.227 84.7253 521.13 74.9616 529.783 66.4438C542.384 53.9838 549.993 44.0771 549.911 40.237C549.911 39.3178 549.482 38.7663 548.561 38.5825C548.316 38.5416 547.17 38.8276 546.413 39.3383C539.643 43.8933 530.642 54.3719 518.471 66.4438C511.495 73.3683 503.497 80.8443 494.374 88.0139C489.076 92.1604 483.389 95.7759 477.375 98.7785C437.752 118.694 418.871 126.252 401.995 139.937C400.993 140.754 399.847 141.347 398.702 141.96C384.751 148.414 369.102 162.978 357.954 174.887C351.735 181.566 346.928 187.387 344.637 190.554C338.091 199.664 325.777 223.011 307.223 244.131C290.245 263.516 271.978 276.364 248.965 287.864C231.291 295.544 224.275 303.98 205.721 319.055C202.776 321.424 200.219 323.692 196.966 326.531C196.966 326.531 196.925 326.531 196.925 326.572C185.081 336.989 174.076 348.305 162.212 358.702C158.734 361.664 151.636 369.303 145.929 384.623C140.692 394.877 131.937 400.801 119.377 412.321C118.232 413.342 117.086 414.65 115.859 415.793C113.793 417.734 111.665 419.756 109.865 421.799H127.294C161.414 382.948 153.845 373.572 162.457 366.015Z" fill="#F1117E"/>
<path d="M-76.1407 366.015C-45.7024 339.849 -20.8076 330.943 -7.9409 320.505C-2.39738 315.889 1.30513 309.25 6.99185 304.634C14.7242 298.384 59.4202 278.917 76.7054 264.946C78.1782 263.761 79.4464 262.576 80.5101 261.473C83.7626 258.021 87.772 251.812 91.6381 244.131C99.3705 228.893 108.289 208.079 119.376 193.086C124.879 185.61 130.913 179.585 137.521 176.5C138.318 176.296 139.034 176.848 139.034 177.644C136.498 188.879 126.597 198.111 119.376 205.751C113.996 211.45 109.864 216.434 111.644 219.211C113.444 221.908 117.822 217.577 119.376 216.045C129.993 206.894 147.667 182.281 160.002 171.68C161.883 170.066 164.604 167.125 166.343 165.388C173.666 156.993 178.432 149.762 187.821 141.408C214.844 117.346 229.674 117.591 259.192 94.4686C271.629 84.7253 282.532 74.9616 291.185 66.4438C303.786 53.9838 311.395 44.0771 311.313 40.237C311.313 39.3178 310.884 38.7663 309.963 38.5825C309.718 38.5416 308.572 38.8276 307.815 39.3383C301.045 43.8933 292.044 54.3719 279.873 66.4438C272.897 73.3683 264.899 80.8443 255.776 88.0139C250.478 92.1604 244.791 95.7759 238.777 98.7785C199.154 118.694 180.273 126.252 163.397 139.937C162.395 140.754 161.249 141.347 160.104 141.96C146.153 148.414 130.504 162.978 119.356 174.887C113.137 181.566 108.33 187.387 106.039 190.554C99.4932 199.664 87.1788 223.011 68.6253 244.131C51.647 263.516 33.3799 276.364 10.3671 287.864C-7.30678 295.544 -14.3231 303.98 -32.8766 319.055C-35.8222 321.424 -38.3792 323.692 -41.6317 326.531C-41.6317 326.531 -41.6726 326.531 -41.6726 326.572C-53.5165 336.989 -64.5218 348.305 -76.3861 358.702C-79.8636 361.664 -86.9618 369.303 -92.6688 384.623C-97.9055 394.877 -106.661 400.801 -119.22 412.321C-120.366 413.342 -121.512 414.65 -122.739 415.793C-124.805 417.734 -126.932 419.756 -128.732 421.799H-111.304C-77.1635 382.948 -84.7321 373.572 -76.1407 366.015Z" fill="#F1117E"/>
<path d="M-349.839 66.4234C-315.759 27.5523 -323.328 18.1767 -314.716 10.619C-284.278 -15.547 -259.383 -24.4528 -246.516 -34.8906C-240.973 -39.507 -237.27 -46.1455 -231.583 -50.7618C-223.851 -57.0122 -179.155 -76.4784 -161.87 -90.4499C-160.397 -91.6347 -159.129 -92.8194 -158.065 -93.9224C-154.813 -97.3744 -150.803 -103.584 -146.937 -111.264C-139.205 -126.502 -130.286 -147.317 -119.199 -162.309C-113.696 -169.785 -107.662 -175.811 -101.055 -178.895C-100.257 -179.1 -99.5408 -178.548 -99.5408 -177.752C-102.077 -166.517 -111.978 -157.285 -119.199 -149.645C-124.579 -143.946 -128.711 -138.962 -126.931 -136.184C-125.131 -133.488 -120.754 -137.818 -119.199 -139.35C-108.582 -148.501 -90.9085 -173.115 -78.5736 -183.716C-76.6917 -185.33 -73.971 -188.271 -72.2323 -190.007C-64.9091 -198.402 -60.1429 -205.633 -50.7537 -213.988C-23.7315 -238.05 -8.901 -237.805 20.6168 -260.927C33.0539 -270.67 43.9569 -280.434 52.6097 -288.952H41.3181C34.3427 -282.027 26.3444 -274.551 17.2211 -267.382C11.923 -263.235 6.2363 -259.62 0.22229 -256.617C-39.4007 -236.702 -58.2814 -229.144 -75.1575 -215.458C-76.1598 -214.641 -77.3054 -214.049 -78.4509 -213.436C-92.4018 -206.982 -108.05 -192.418 -119.199 -180.509C-125.417 -173.83 -130.225 -168.008 -132.516 -164.842C-139.062 -155.732 -151.376 -132.385 -169.929 -111.264C-186.908 -91.8798 -205.175 -79.0317 -228.188 -67.5317C-245.861 -59.8515 -252.878 -51.4155 -271.431 -36.3409C-274.377 -33.9715 -276.934 -31.7041 -280.186 -28.8649C-280.186 -28.8649 -280.227 -28.8649 -280.227 -28.8241C-292.071 -18.4067 -303.076 -7.09055 -314.941 3.3064C-318.418 6.26819 -325.517 13.9076 -331.224 29.2273C-336.46 39.4812 -345.216 45.4048 -357.775 56.9252V74.3283C-354.952 71.3257 -352.211 69.1197 -349.839 66.4234Z" fill="#F1117E"/>
<path d="M-315.433 80.2725C-311.383 76.1259 -308.416 73.1437 -304.489 70.2636C-302.505 68.9155 -300.398 67.4857 -298.311 66.4235C-280.637 57.2317 -259.875 55.4547 -241.587 47.6314C-229.498 42.0755 -220.395 31.8419 -210.944 22.8135C-201.719 14.0099 -190.55 7.55518 -179.995 0.528534C-166.903 -9.90924 -154.425 -21.8994 -145.036 -35.8505C-141.865 -40.283 -137.753 -43.9802 -133.539 -47.4118C-128.773 -51.3132 -123.802 -55.0104 -119.159 -59.0547C-113.37 -63.957 -111.427 -61.894 -76.8358 -97.4356C-72.7856 -101.582 -69.8194 -104.564 -65.8919 -107.444C-63.9077 -108.793 -61.8008 -110.222 -59.7143 -111.285C-42.0404 -120.476 -21.2777 -122.253 -2.9902 -130.077C9.09918 -135.633 18.202 -145.866 27.6526 -154.895C36.8782 -163.698 48.0471 -170.153 58.6023 -177.18C71.6941 -187.617 84.1721 -199.608 93.5613 -213.559C96.732 -217.991 100.844 -221.688 105.058 -225.12C109.824 -229.021 114.795 -232.718 119.438 -236.763C125.227 -241.665 127.17 -239.602 161.761 -275.144C165.811 -279.29 168.777 -282.272 172.705 -285.153C174.689 -286.501 176.796 -287.931 178.883 -288.993H138.83C132.959 -278.248 126.966 -268.566 119.418 -258.925C108.433 -245.076 95.2387 -235.782 80.9401 -217.092C69.2393 -202.631 55.0021 -188.496 39.8443 -177.67C12.7403 -158.796 -9.96567 -140.637 -16.1229 -140.392C-16.9207 -140.392 -17.4934 -141.025 -17.7184 -141.781C-18.7412 -145.498 -13.6682 -150.258 -10.3134 -153.608C4.02612 -167.661 47.3925 -189.027 62.7344 -210.597C68.5234 -218.869 75.5397 -227.489 80.6128 -236.273C90.718 -253.533 96.6297 -260.927 108.085 -270.262C112.135 -273.632 115.797 -277.186 119.418 -281.026C122.24 -284.029 124.961 -286.256 127.334 -288.931H109.885C99.1049 -276.737 92.2522 -263.399 82.1879 -254.432C79.7741 -251.94 76.6034 -250.51 73.7396 -249.059C60.5047 -242.605 39.8443 -238.295 17.977 -225.508C17.4656 -225.202 10.0606 -220.401 7.31955 -218.257C1.91919 -214.09 -2.19244 -208.575 -7.18365 -203.979C-21.1754 -190.007 -45.3542 -184.063 -59.7347 -170.03C-77.7563 -152.035 -87.9024 -133.733 -99.7668 -111.264C-105.638 -100.52 -111.631 -90.8379 -119.179 -81.1967C-130.164 -67.3478 -143.358 -58.0539 -157.657 -39.3639C-169.358 -24.9021 -183.595 -10.7672 -198.753 0.0587463C-225.857 18.9326 -248.563 37.0915 -254.72 37.3366C-255.518 37.3366 -256.09 36.7034 -256.295 35.9476C-257.318 32.23 -252.245 27.4707 -248.89 24.1208C-234.55 10.0267 -191.184 -11.3391 -175.842 -32.9092C-170.053 -41.1818 -163.037 -49.8017 -157.964 -58.5849C-147.858 -75.8451 -141.947 -83.2394 -130.492 -92.5742C-126.441 -95.9445 -122.78 -99.4986 -119.159 -103.339C-116.336 -106.341 -113.615 -108.568 -111.243 -111.244C-77.1631 -150.115 -84.7318 -159.49 -76.1198 -167.048C-45.6815 -193.214 -20.7868 -202.12 -7.92007 -212.558C-2.37653 -217.174 1.32599 -223.813 7.0127 -228.429C14.745 -234.679 59.441 -254.146 76.7262 -268.117C78.199 -269.302 79.4673 -270.487 80.5309 -271.59C83.7834 -275.042 87.7928 -281.251 91.6589 -288.931H68.6666C51.6882 -269.547 33.4212 -256.699 10.4084 -245.199C-7.26547 -237.519 -14.2818 -229.083 -32.8353 -214.008C-35.7809 -211.639 -38.3379 -209.371 -41.5904 -206.532C-41.5904 -206.532 -41.6313 -206.532 -41.6313 -206.491C-53.4752 -196.074 -64.4805 -184.758 -76.3448 -174.361C-79.8224 -171.399 -86.9205 -163.76 -92.6277 -148.44C-97.8644 -138.186 -106.619 -132.262 -119.179 -120.742C-120.325 -119.721 -121.47 -118.413 -122.698 -117.269C-124.764 -115.329 -126.891 -113.307 -128.691 -111.264C-139.472 -99.0697 -146.324 -85.7314 -156.389 -76.7643C-158.802 -74.2723 -161.973 -72.8424 -164.837 -71.3922C-178.072 -64.9375 -198.732 -60.6276 -220.6 -47.8407C-221.111 -47.5344 -228.516 -42.7342 -231.257 -40.5894C-236.657 -36.4225 -240.769 -30.9074 -245.76 -26.3115C-259.752 -12.34 -283.931 -6.39597 -298.311 7.63684C-316.333 25.6324 -326.479 43.9343 -338.343 66.4031C-344.214 77.1473 -350.208 86.8293 -357.756 96.4705V118.674C-351.987 113.751 -350.024 115.835 -315.433 80.2725ZM-84.0976 -117.351C-83.5044 -120.517 -78.0018 -126.502 -75.2198 -131.67C-68.1625 -143.681 -59.7756 -156.917 -46.8475 -163.331C-40.0767 -166.701 -33.224 -168.008 -24.3052 -172.482C-8.82013 -180.203 3.0647 -191.723 14.6223 -204.449C17.5475 -207.369 20.1862 -210.658 22.866 -213.824C31.7029 -222.648 45.4083 -226.488 56.3113 -232.147C63.7163 -237.294 73.4942 -244.3 74.3738 -239.949C74.3738 -238.928 73.351 -237.702 71.6736 -236.273C67.3165 -232.678 58.6432 -227.918 52.0155 -222.587C48.579 -219.809 46.4106 -216.582 43.9764 -212.925C35.4463 -200.465 16.5042 -199.342 -11.0703 -165.475C-18.4344 -156.508 -27.8031 -149.686 -37.581 -143.599C-49.2409 -136.388 -58.7528 -132.548 -68.3262 -124.602C-70.9445 -122.417 -76.6517 -116.452 -76.8767 -116.166C-78.9019 -114.165 -84.7522 -112.796 -84.0976 -117.351ZM-322.695 60.3365C-322.101 57.1704 -316.599 51.1855 -313.817 46.0177C-306.76 34.0071 -298.373 20.7709 -285.445 14.3571C-278.674 10.9868 -271.821 9.67947 -262.902 5.20612C-247.417 -2.51498 -235.532 -14.0353 -223.975 -26.7609C-221.05 -29.6818 -218.411 -32.9705 -215.731 -36.1365C-206.894 -44.9606 -193.189 -48.8008 -182.286 -54.4588C-174.881 -59.6063 -165.103 -66.6124 -164.223 -62.2617C-164.223 -61.2403 -165.246 -60.0148 -166.923 -58.5849C-171.28 -54.9899 -179.954 -50.2306 -186.581 -44.8994C-190.018 -42.1214 -192.186 -38.894 -194.621 -35.2378C-203.151 -22.7778 -222.093 -21.6543 -249.667 12.2123C-257.031 21.1794 -266.4 28.0018 -276.178 34.0888C-287.838 41.2993 -297.35 45.1394 -306.923 53.0852C-309.542 55.2708 -315.249 61.2353 -315.474 61.5212C-317.499 63.523 -323.349 64.8915 -322.695 60.3365Z" fill="#F1117E"/>
<path d="M-256.908 93.0593C-251.323 89.689 -246.046 85.808 -241.136 81.5389C-234.324 75.5949 -228.167 70.57 -223.033 66.4235C-196.952 45.3641 -188.912 43.5053 -169.213 30.3712C-163.424 26.4902 -158.126 21.7105 -153.524 16.2363C-142.437 2.95923 -131.309 -7.37643 -119.199 -19.4688C-105.596 -33.0522 -89.5584 -44.0619 -75.0961 -56.7874C-63.334 -66.0814 -46.7239 -67.4295 -18.3516 -84.6488C-12.7672 -88.0191 -7.48956 -91.9001 -2.58017 -96.1692C4.23163 -102.113 10.3888 -107.138 15.5233 -111.285C41.6044 -132.344 49.6436 -134.203 69.3426 -147.337C75.1316 -151.218 80.4296 -155.998 85.0322 -161.472C96.1192 -174.749 107.247 -185.085 119.357 -197.177C132.96 -210.76 148.998 -221.77 163.46 -234.496C175.222 -243.789 191.832 -245.138 220.204 -262.357C225.789 -265.727 231.066 -269.608 235.976 -273.877C242.788 -279.821 248.945 -284.846 254.079 -288.993H233.951C233.071 -288.237 232.212 -287.44 231.291 -286.746C215.725 -274.674 178.863 -249.08 172.951 -250.898C172.624 -251.02 172.44 -251.327 172.563 -251.694C176.715 -266.503 210.733 -279.515 214.538 -285.05C214.825 -285.439 214.927 -286.623 213.352 -286.623C176.858 -287.338 173.729 -258.415 163.092 -248.671C162.846 -248.508 128.378 -227.469 119.418 -217.358C118.539 -216.398 117.946 -215.377 117.046 -213.947C107.247 -198.627 93.46 -199.71 66.6628 -165.659C62.6125 -160.553 57.8669 -156.12 52.4256 -152.566C35.9382 -141.679 29.8832 -143.783 -1.2301 -114.41C-2.33472 -113.389 -3.48022 -112.265 -4.64621 -111.285C-5.52582 -110.529 -6.38495 -109.732 -7.30548 -109.038C-22.8724 -96.9658 -59.7338 -71.3718 -65.6455 -73.1897C-65.9524 -73.3123 -66.157 -73.6187 -66.0342 -73.9863C-61.8817 -88.7953 -27.8636 -101.807 -24.0588 -107.342C-23.7724 -107.73 -23.6702 -108.915 -25.2453 -108.915C-61.7385 -109.63 -64.8682 -80.7065 -75.5052 -70.9632C-75.7507 -70.7998 -110.219 -49.7608 -119.178 -39.6499C-120.058 -38.6898 -120.651 -37.6685 -121.551 -36.2387C-131.35 -20.919 -145.137 -22.0016 -171.934 12.0489C-175.984 17.1555 -180.73 21.588 -186.171 25.1421C-202.659 36.0293 -208.714 33.9254 -239.827 63.2983C-240.932 64.3196 -242.077 65.443 -243.243 66.4235C-244.123 67.1793 -244.982 67.9759 -245.902 68.6704C-261.469 80.7423 -298.331 106.336 -304.242 104.518C-304.549 104.396 -304.754 104.089 -304.631 103.722C-300.479 88.9128 -266.461 75.9012 -262.656 70.3658C-262.369 69.9776 -262.267 68.7929 -263.842 68.7929C-300.335 68.078 -303.465 97.0016 -314.102 106.745C-314.348 106.908 -348.816 127.947 -357.775 138.058V158.239C-344.172 144.656 -328.135 133.646 -313.673 120.921C-301.89 111.627 -285.28 110.279 -256.908 93.0593Z" fill="#F1117E"/>
<path d="M-349.84 244.111C-315.76 205.24 -323.329 195.864 -314.717 188.307C-284.278 162.141 -259.384 153.235 -246.517 142.797C-240.974 138.181 -237.271 131.542 -231.584 126.926C-223.852 120.676 -179.156 101.209 -161.871 87.2378C-160.398 86.0531 -159.13 84.8683 -158.066 83.7653C-154.813 80.3133 -150.804 74.1037 -146.938 66.4235C-139.206 51.1855 -130.287 30.3712 -119.2 15.3784C-113.697 7.90237 -107.663 1.87665 -101.056 -1.20772C-100.258 -1.41197 -99.5419 -0.860474 -99.5419 -0.0638428C-102.078 11.1706 -111.979 20.4032 -119.2 28.0426C-124.58 33.7415 -128.712 38.7255 -126.932 41.5035C-125.132 44.1998 -120.754 39.8694 -119.2 38.3374C-108.583 29.1865 -90.9095 4.57289 -78.5746 -6.02832C-76.6927 -7.64198 -73.9721 -10.5833 -72.2333 -12.3196C-64.9101 -20.7148 -60.1439 -27.9456 -50.7547 -36.3C-23.7325 -60.3621 -8.90204 -60.1169 20.6158 -83.2394C33.0529 -92.9827 43.9558 -102.746 52.6087 -111.264C65.2095 -123.724 72.819 -133.631 72.7372 -137.471C72.7372 -138.39 72.3077 -138.942 71.3871 -139.126C71.1417 -139.166 69.9962 -138.88 69.2393 -138.37C62.4684 -133.815 53.4678 -123.336 41.2966 -111.264C34.3212 -104.34 26.3229 -96.8637 17.1996 -89.6941C11.9016 -85.5476 6.21481 -81.9321 0.200806 -78.9295C-39.4221 -59.0139 -58.3029 -51.4562 -75.179 -37.7707C-76.1813 -36.9536 -77.3268 -36.3612 -78.4724 -35.7485C-92.4232 -29.2938 -108.072 -14.7299 -119.22 -2.82138C-125.439 3.85799 -130.246 9.67944 -132.537 12.8455C-139.083 21.9556 -151.397 45.3028 -169.951 66.4235C-186.929 85.808 -205.196 98.656 -228.209 110.156C-245.883 117.836 -252.899 126.272 -271.453 141.347C-274.398 143.716 -276.955 145.984 -280.208 148.823C-280.208 148.823 -280.249 148.823 -280.249 148.864C-292.093 159.281 -303.098 170.597 -314.962 180.994C-318.44 183.956 -325.538 191.595 -331.245 206.915C-336.482 217.169 -345.237 223.093 -357.797 234.613V252.016C-354.954 249.034 -352.212 246.807 -349.84 244.111Z" fill="#F1117E"/>
<path d="M-315.433 257.96C-311.382 253.814 -308.416 250.831 -304.489 247.951C-302.505 246.603 -300.398 245.173 -298.311 244.111C-280.637 234.919 -259.875 233.142 -241.587 225.319C-229.498 219.763 -220.395 209.529 -210.944 200.501C-201.719 191.697 -190.55 185.243 -179.994 178.216C-166.903 167.778 -154.425 155.788 -145.035 141.837C-141.865 137.405 -137.753 133.707 -133.539 130.276C-128.773 126.374 -123.802 122.677 -119.159 118.633C-113.37 113.731 -111.427 115.794 -76.8359 80.252C-72.7856 76.1054 -69.8195 73.1232 -65.892 70.2431C-63.9078 68.895 -61.8009 67.4651 -59.7144 66.403C-42.0405 57.2112 -21.2778 55.4341 -2.99033 47.6109C9.09909 42.0549 18.2019 31.8214 27.6525 22.793C36.8781 13.9893 48.047 7.53461 58.6022 0.507996C71.6939 -9.92981 84.172 -21.92 93.5613 -35.8711C96.7319 -40.3036 100.844 -44.0007 105.057 -47.4323C109.824 -51.3337 114.794 -55.0309 119.438 -59.0753C125.227 -63.9776 127.17 -61.9145 161.761 -97.4561C165.811 -101.603 168.777 -104.585 172.705 -107.465C174.689 -108.813 176.796 -110.243 178.883 -111.305C196.556 -120.497 217.319 -122.274 235.607 -130.097C247.696 -135.653 256.799 -145.887 266.249 -154.915C275.475 -163.719 286.644 -170.173 297.199 -177.2C310.291 -187.638 322.769 -199.628 332.158 -213.579C335.329 -218.012 339.44 -221.709 343.654 -225.14C348.421 -229.042 353.391 -232.739 358.035 -236.783C363.824 -241.686 365.767 -239.623 400.358 -275.164C404.408 -279.311 407.374 -282.293 411.302 -285.173C413.286 -286.521 415.393 -287.951 417.479 -289.013H377.447C371.577 -278.269 365.583 -268.587 358.035 -258.946C347.05 -245.097 333.856 -235.803 319.557 -217.113C307.857 -202.651 293.619 -188.516 278.462 -177.69C251.358 -158.816 228.652 -140.658 222.494 -140.412C221.697 -140.412 221.124 -141.046 220.899 -141.801C219.876 -145.519 224.949 -150.278 228.304 -153.628C242.643 -167.722 286.01 -189.088 301.352 -210.658C307.141 -218.931 314.157 -227.551 319.23 -236.334C329.335 -253.594 335.247 -260.988 346.702 -270.323C350.753 -273.694 354.414 -277.248 358.035 -281.088C360.858 -284.09 363.578 -286.317 365.951 -288.993H348.523C337.743 -276.798 330.89 -263.46 320.826 -254.493C318.412 -252.001 315.241 -250.571 312.377 -249.121C299.142 -242.666 278.482 -238.356 256.615 -225.569C256.103 -225.263 248.698 -220.463 245.957 -218.318C240.557 -214.151 236.445 -208.636 231.454 -204.04C217.462 -190.069 193.284 -184.125 178.903 -170.092C160.881 -152.096 150.735 -133.794 138.871 -111.326C133 -100.581 127.007 -90.8993 119.458 -81.2581C108.474 -67.4091 95.2796 -58.1152 80.9809 -39.4252C69.2802 -24.9635 55.0429 -10.8286 39.8851 -0.00265503C12.7811 18.8712 -9.92487 37.0301 -16.0821 37.2752C-16.8799 37.2752 -17.4526 36.642 -17.6776 35.8862C-18.7004 32.1687 -13.6273 27.4093 -10.2726 24.0594C4.06696 9.96533 47.4333 -11.4005 62.7752 -32.9706C68.5642 -41.2432 75.5806 -49.863 80.6536 -58.6463C90.7588 -75.9064 96.6705 -83.3008 108.126 -92.6355C112.176 -96.0059 115.838 -99.56 119.458 -103.4C122.281 -106.403 125.002 -108.629 127.375 -111.305C161.454 -150.176 153.885 -159.552 162.497 -167.11C192.936 -193.275 217.831 -202.181 230.697 -212.619C236.241 -217.235 239.943 -223.874 245.63 -228.49C253.362 -234.741 298.058 -254.207 315.344 -268.178C316.816 -269.363 318.085 -270.548 319.148 -271.651C322.401 -275.103 326.41 -281.312 330.276 -288.993H307.284C290.305 -269.608 272.038 -256.76 249.026 -245.26C231.352 -237.58 224.335 -229.144 205.782 -214.069C202.836 -211.7 200.279 -209.433 197.027 -206.593C197.027 -206.593 196.986 -206.593 196.986 -206.553C185.142 -196.135 174.137 -184.819 162.272 -174.422C158.795 -171.46 151.697 -163.821 145.99 -148.501C140.753 -138.247 131.998 -132.324 119.438 -120.803C118.292 -119.782 117.147 -118.475 115.919 -117.331C113.853 -115.39 111.726 -113.368 109.926 -111.326C99.1457 -99.1311 92.293 -85.7927 82.2287 -76.8256C79.8149 -74.3336 76.6443 -72.9038 73.7804 -71.4535C60.5455 -64.9988 39.8851 -60.6889 18.0178 -47.9021C17.5064 -47.5957 10.1014 -42.7956 7.36032 -40.6508C1.95999 -36.4839 -2.15164 -30.9688 -7.14288 -26.3729C-21.1347 -12.4013 -45.3135 -6.45734 -59.6939 7.57547C-77.7155 25.571 -87.8616 43.8729 -99.7258 66.3417C-105.597 77.0859 -111.59 86.7679 -119.138 96.4091C-130.123 110.258 -143.317 119.552 -157.616 138.242C-169.317 152.704 -183.554 166.839 -198.712 177.665C-225.816 196.538 -248.522 214.697 -254.679 214.942C-255.477 214.942 -256.049 214.309 -256.254 213.553C-257.277 209.836 -252.204 205.077 -248.849 201.727C-234.509 187.633 -191.143 166.267 -175.801 144.697C-170.012 136.424 -162.996 127.804 -157.923 119.021C-147.817 101.761 -141.906 94.3665 -130.45 85.0317C-126.4 81.6613 -122.739 78.1072 -119.118 74.2671C-116.295 71.2644 -113.574 69.038 -111.202 66.3622C-77.1223 27.4911 -84.6909 18.1154 -76.079 10.5577C-45.6407 -15.6082 -20.746 -24.5141 -7.87927 -34.9519C-2.33575 -39.5682 1.36676 -46.2067 7.0535 -50.823C14.7858 -57.0735 59.4818 -76.5397 76.767 -90.5112C78.2398 -91.6959 79.5081 -92.8806 80.5718 -93.9837C83.8243 -97.4357 87.8336 -103.645 91.6998 -111.326C99.4321 -126.563 108.351 -147.378 119.438 -162.371C124.941 -169.847 130.975 -175.872 137.582 -178.957C138.38 -179.161 139.096 -178.609 139.096 -177.813C136.559 -166.578 126.659 -157.346 119.438 -149.706C114.058 -144.007 109.926 -139.023 111.706 -136.245C113.506 -133.549 117.883 -137.88 119.438 -139.412C130.054 -148.563 147.728 -173.176 160.063 -183.777C161.945 -185.391 164.666 -188.332 166.404 -190.069C173.728 -198.464 178.494 -205.695 187.883 -214.049C214.905 -238.111 229.736 -237.866 259.254 -260.988C271.691 -270.732 282.594 -280.495 291.246 -289.013H279.955C272.979 -282.089 264.981 -274.613 255.858 -267.443C250.56 -263.297 244.873 -259.681 238.859 -256.678C199.236 -236.763 180.355 -229.205 163.479 -215.52C162.477 -214.703 161.331 -214.11 160.186 -213.497C146.235 -207.043 130.586 -192.479 119.438 -180.57C113.219 -173.891 108.412 -168.07 106.121 -164.903C99.5753 -155.793 87.2609 -132.446 68.7074 -111.326C51.7291 -91.941 33.462 -79.093 10.4492 -67.593C-7.2247 -59.9127 -14.2411 -51.4767 -32.7945 -36.4022C-35.7401 -34.0327 -38.2971 -31.7654 -41.5496 -28.9261C-41.5496 -28.9261 -41.5905 -28.9262 -41.5905 -28.8853C-53.4344 -18.468 -64.4397 -7.15179 -76.304 3.24515C-79.7816 6.20694 -86.8797 13.8463 -92.5867 29.166C-97.8234 39.42 -106.578 45.3436 -119.138 56.864C-120.284 57.8853 -121.429 59.1925 -122.657 60.3364C-124.723 62.2769 -126.85 64.2991 -128.65 66.3417C-139.431 78.5362 -146.283 91.8745 -156.348 100.842C-158.761 103.334 -161.932 104.763 -164.796 106.214C-178.031 112.668 -198.691 116.978 -220.558 129.765C-221.07 130.092 -228.475 134.872 -231.216 137.016C-236.616 141.183 -240.728 146.698 -245.719 151.294C-259.711 165.266 -283.89 171.21 -298.27 185.243C-316.292 203.238 -326.438 221.54 -338.302 244.009C-344.173 254.753 -350.167 264.435 -357.715 274.076V296.239C-351.987 291.439 -350.023 293.522 -315.433 257.96ZM154.479 -117.351C155.072 -120.517 160.575 -126.502 163.357 -131.67C170.414 -143.681 178.801 -156.917 191.729 -163.331C198.5 -166.701 205.352 -168.008 214.271 -172.482C229.756 -180.203 241.641 -191.723 253.199 -204.449C256.124 -207.37 258.763 -210.658 261.442 -213.824C270.279 -222.648 283.985 -226.489 294.888 -232.147C302.293 -237.294 312.07 -244.3 312.95 -239.949C312.95 -238.928 311.927 -237.703 310.25 -236.273C305.893 -232.678 297.22 -227.918 290.592 -222.587C287.155 -219.809 284.987 -216.582 282.553 -212.926C274.023 -200.466 255.081 -199.342 227.506 -165.475C220.142 -156.508 210.773 -149.686 200.995 -143.599C189.336 -136.388 179.824 -132.548 170.25 -124.603C167.632 -122.417 161.925 -116.452 161.7 -116.167C159.674 -114.165 153.824 -112.796 154.479 -117.351ZM-84.0977 60.3364C-83.5045 57.1703 -78.0019 51.1855 -75.2199 46.0176C-68.1626 34.007 -59.7757 20.7708 -46.8477 14.357C-40.0768 10.9867 -33.2241 9.67935 -24.3053 5.20602C-8.82025 -2.51508 3.06461 -14.0355 14.6222 -26.761C17.5473 -29.6819 20.1862 -32.9706 22.8659 -36.1366C31.7028 -44.9607 45.4082 -48.8009 56.3112 -54.4589C63.7162 -59.6063 73.4941 -66.6125 74.3737 -62.2617C74.3737 -61.2404 73.3509 -60.0148 71.6735 -58.585C67.3164 -54.99 58.6431 -50.2307 52.0154 -44.8994C48.5789 -42.1215 46.4105 -38.8941 43.9763 -35.2379C35.4462 -22.7779 16.5041 -21.6544 -11.0704 12.2122C-18.4345 21.1793 -27.8033 28.0017 -37.5811 34.0887C-49.241 41.2992 -58.753 45.1393 -68.3263 53.0851C-70.9446 55.2707 -76.6518 61.2352 -76.8768 61.5211C-78.9019 63.5229 -84.7523 64.8914 -84.0977 60.3364ZM-322.694 238.024C-322.101 234.858 -316.599 228.873 -313.817 223.705C-306.759 211.695 -298.372 198.458 -285.444 192.045C-278.674 188.674 -271.821 187.367 -262.902 182.894C-247.417 175.173 -235.532 163.652 -223.975 150.927C-221.049 148.006 -218.411 144.717 -215.731 141.551C-206.894 132.727 -193.189 128.887 -182.286 123.229C-174.881 118.081 -165.103 111.075 -164.223 115.426C-164.223 116.447 -165.246 117.673 -166.923 119.103C-171.28 122.698 -179.954 127.457 -186.581 132.788C-190.018 135.566 -192.186 138.794 -194.62 142.45C-203.151 154.91 -222.093 156.033 -249.667 189.9C-257.031 198.867 -266.4 205.689 -276.178 211.776C-287.838 218.987 -297.35 222.827 -306.923 230.773C-309.541 232.958 -315.249 238.923 -315.474 239.209C-317.499 241.231 -323.349 242.579 -322.694 238.024Z" fill="#F1117E"/>
<path d="M-314.736 366.015C-284.298 339.849 -259.403 330.943 -246.537 320.505C-240.993 315.889 -237.291 309.25 -231.604 304.634C-223.872 298.384 -179.176 278.917 -161.89 264.946C-160.418 263.761 -159.149 262.576 -158.086 261.473C-154.833 258.021 -150.824 251.812 -146.958 244.131C-139.225 228.893 -130.307 208.079 -119.219 193.086C-113.717 185.61 -107.682 179.585 -101.075 176.5C-100.277 176.296 -99.5614 176.848 -99.5614 177.644C-102.098 188.879 -111.999 198.111 -119.219 205.751C-124.599 211.45 -128.731 216.434 -126.952 219.211C-125.152 221.908 -120.774 217.577 -119.219 216.045C-108.603 206.894 -90.9293 182.281 -78.5944 171.68C-76.7125 170.066 -73.9919 167.125 -72.2531 165.388C-64.9299 156.993 -60.1637 149.762 -50.7745 141.408C-23.7523 117.346 -8.92184 117.591 20.5959 94.4686C33.0331 84.7253 43.9361 74.9616 52.5889 66.4438C65.1897 53.9838 72.7993 44.0771 72.7174 40.237C72.7174 39.3178 72.2879 38.7663 71.3674 38.5825C71.1219 38.5416 69.9764 38.8276 69.2195 39.3383C62.4486 43.8933 53.448 54.3719 41.2768 66.4438C34.3014 73.3683 26.3031 80.8443 17.1798 88.0139C11.8817 92.1604 6.19504 95.7759 0.18103 98.7785C-39.4419 118.694 -58.3227 126.252 -75.1987 139.937C-76.2011 140.754 -77.3466 141.347 -78.4921 141.96C-92.4428 148.414 -108.092 162.978 -119.24 174.887C-125.459 181.566 -130.266 187.387 -132.557 190.554C-139.103 199.664 -151.417 223.011 -169.97 244.131C-186.949 263.516 -205.216 276.364 -228.229 287.864C-245.903 295.544 -252.919 303.98 -271.472 319.055C-274.418 321.424 -276.975 323.692 -280.227 326.531C-280.227 326.531 -280.268 326.531 -280.268 326.572C-292.112 336.989 -303.118 348.305 -314.982 358.702C-318.459 361.664 -325.558 369.303 -331.265 384.623C-336.501 394.877 -345.257 400.801 -357.816 412.321V421.819H-349.9C-315.759 382.948 -323.328 373.572 -314.736 366.015Z" fill="#F1117E"/>
<path d="M-256.908 270.747C-251.324 267.376 -246.046 263.495 -241.136 259.226C-234.325 253.282 -228.167 248.258 -223.033 244.111C-196.952 223.052 -188.913 221.193 -169.214 208.059C-163.425 204.178 -158.127 199.398 -153.524 193.924C-142.437 180.647 -131.309 170.311 -119.199 158.219C-107.089 146.126 -89.5587 133.626 -75.0965 120.9C-63.3344 111.606 -46.7242 110.258 -18.352 93.0387C-12.7675 89.6684 -7.48993 85.7874 -2.58051 81.5184C4.23126 75.5743 10.3885 70.5495 15.5229 66.403C41.6041 45.3435 49.6432 43.4847 69.3422 30.3507C75.1312 26.4697 80.4293 21.69 85.0319 16.2158C96.1189 2.93872 107.247 -7.39694 119.357 -19.4893C132.96 -33.0727 148.997 -44.0824 163.46 -56.808C175.222 -66.1019 191.832 -67.45 220.204 -84.6693C225.789 -88.0396 231.066 -91.9206 235.976 -96.1897C242.787 -102.134 248.945 -107.159 254.079 -111.305C280.16 -132.365 288.199 -134.223 307.898 -147.357C313.687 -151.238 318.985 -156.018 323.588 -161.492C334.675 -174.769 345.803 -185.105 357.913 -197.197C371.516 -210.781 387.553 -221.791 402.016 -234.516C413.778 -243.81 430.388 -245.158 458.76 -262.377C464.344 -265.748 469.622 -269.629 474.531 -273.898C481.343 -279.842 487.5 -284.867 492.635 -289.013H472.425C471.545 -288.257 470.686 -287.461 469.765 -286.766C454.198 -274.694 417.337 -249.1 411.425 -250.918C411.098 -251.041 410.914 -251.347 411.037 -251.715C415.189 -266.524 449.207 -279.535 453.012 -285.071C453.298 -285.459 453.401 -286.644 451.826 -286.644C415.332 -287.359 412.203 -258.435 401.566 -248.692C401.32 -248.528 366.852 -227.489 357.892 -217.378C357.013 -216.418 356.419 -215.397 355.519 -213.967C345.721 -198.648 331.934 -199.73 305.137 -165.68C301.086 -160.573 296.341 -156.141 290.899 -152.586C274.412 -141.699 268.357 -143.803 237.244 -114.43C236.139 -113.409 234.994 -112.286 233.828 -111.305C232.948 -110.549 232.089 -109.753 231.168 -109.058C215.602 -96.9863 178.74 -71.3923 172.828 -73.2102C172.501 -73.3328 172.317 -73.6391 172.44 -74.0068C176.592 -88.8158 210.61 -101.827 214.415 -107.363C214.701 -107.751 214.804 -108.936 213.229 -108.936C176.735 -109.651 173.606 -80.7271 162.969 -70.9838C162.723 -70.8203 128.255 -49.7814 119.295 -39.6704C118.416 -38.7104 117.823 -37.689 116.922 -36.2592C107.124 -20.9395 93.3369 -22.0221 66.5398 12.0284C62.4895 17.1349 57.7437 21.5674 52.3025 25.1216C35.8151 36.0087 29.7602 33.9048 -1.35318 63.2777C-2.45779 64.299 -3.60333 65.4225 -4.76932 66.403C-5.6489 67.1587 -6.50806 67.9554 -7.42856 68.6498C-22.9955 80.7217 -59.8569 106.316 -65.7686 104.498C-66.0754 104.375 -66.28 104.069 -66.1573 103.701C-62.0047 88.8922 -27.9867 75.8807 -24.1819 70.3452C-23.8955 69.9571 -23.7932 68.7724 -25.3683 68.7724C-61.8615 68.0575 -64.9913 96.981 -75.6283 106.724C-75.8738 106.888 -110.342 127.927 -119.301 138.038C-120.181 138.998 -120.774 140.019 -121.674 141.449C-131.473 156.769 -145.26 155.686 -172.057 189.736C-176.107 194.843 -180.853 199.275 -186.294 202.83C-202.782 213.717 -208.837 211.613 -239.95 240.986C-241.055 242.007 -242.2 243.131 -243.366 244.111C-244.246 244.867 -245.105 245.663 -246.025 246.358C-261.592 258.43 -298.454 284.024 -304.365 282.206C-304.672 282.083 -304.877 281.777 -304.754 281.409C-300.602 266.6 -266.584 253.589 -262.779 248.053C-262.492 247.665 -262.39 246.48 -263.965 246.48C-300.458 245.766 -303.588 274.689 -314.225 284.432C-314.471 284.596 -348.939 305.635 -357.898 315.746V335.927C-344.295 322.343 -328.258 311.334 -313.796 298.608C-301.89 289.314 -285.28 287.966 -256.908 270.747Z" fill="#F1117E"/>
</g>
</g>
<path d="M86.5446 24.3955C73.3573 27.2544 64.291 37.0489 66.293 46.2836C68.2949 55.5183 80.6034 60.679 93.7907 57.8201C106.978 54.9613 116.044 45.1667 114.042 35.9321C112.04 26.6974 99.732 21.5367 86.5446 24.3955ZM92.1032 50.036C82.9992 52.0097 75.168 48.7875 74.2556 44.5788C73.3432 40.3701 79.1369 34.1941 88.241 32.2205C97.3451 30.2468 105.176 33.469 106.089 37.6777C107.001 41.8865 101.228 48.0579 92.1032 50.036Z" fill="white"/>
<path d="M9.2003 41.1628C-0.292419 43.2207 -6.35892 52.3601 -4.37918 61.5937C-2.37843 70.8227 6.92823 76.6294 16.4254 74.5919C25.9181 72.534 31.9846 63.3946 30.0048 54.161C27.9997 44.9116 18.693 39.1049 9.2003 41.1628ZM21.9778 55.8798C23.0446 60.8006 19.8124 65.6699 14.7555 66.7876C9.69409 67.8849 4.71462 64.7957 3.64785 59.8749C2.58108 54.9541 5.80881 50.0643 10.8702 48.9671C15.9316 47.8698 20.911 50.959 21.9778 55.8798Z" fill="white"/>
<path d="M60.5702 56.4861L47.8011 59.2543L59.0217 32.3339C59.3859 31.4484 58.6528 30.4423 57.7477 30.6385L34.3343 35.7143C32.0127 36.2176 30.5265 38.9595 31.5843 41.4634C32.356 43.3125 34.2917 44.2596 36.1018 43.8671L46.5886 41.5937L35.353 68.5398C34.9887 69.4253 35.7172 70.41 36.6026 70.218L62.1999 64.6688C64.0101 64.2764 65.3798 62.6128 65.3164 60.6101C65.2377 57.8715 62.8919 55.9828 60.5702 56.4861Z" fill="white"/>
<path d="M146.639 15.6464L152.744 43.8065C152.799 44.0631 152.774 44.3373 152.658 44.5864C152.383 45.1833 151.69 45.423 151.114 45.1224L126.349 32.1564L129.316 45.8409C129.816 48.1502 128.406 50.381 126.198 50.7926C124.071 51.1866 122.013 49.6404 121.531 47.4167L115.449 19.3634C115.389 19.0855 115.414 18.8112 115.531 18.5622C115.81 17.9867 116.503 17.747 117.058 18.0519L141.823 31.018L138.88 17.4404C138.398 15.2167 139.636 12.9782 141.71 12.439C143.906 11.8733 146.138 13.3371 146.639 15.6464Z" fill="white"/>
</g>
<defs>
<clipPath id="clip0_771_2269">
<rect width="148" height="89" rx="10" fill="white"/>
</clipPath>
<clipPath id="clip1_771_2269">
<rect width="718" height="508" fill="white" transform="translate(-296 -228)"/>
</clipPath>
</defs>
</svg>
