<svg width="100" height="17" viewBox="0 0 100 17" fill="none" xmlns="http://www.w3.org/2000/svg">
<path d="M52.0917 0.300339L46.9257 8.49V0.300339H43.3116V14.7173H46.9257L52.0917 6.52764V14.7173H55.7055V0.300339H52.0917ZM77.3913 11.2131V9.09068H83.3227V5.78685H77.3913V3.80449H83.8734V0.300339H73.7773V14.7173H84.0896V11.2131H77.3913ZM70.2414 11.2131V0.300339H59.85V1.40168C59.85 6.34753 59.6148 10.0919 58.5146 11.2131H57.042V17H60.656V14.7173H68.6897V17H72.3037V11.2131H70.2414ZM66.6275 3.80449V11.2131H62.3448C62.9545 9.87158 63.2488 7.28854 63.2488 3.96472V3.80449H66.6275ZM85.2478 7.50887C85.2478 11.8539 88.4694 15.0176 92.6339 15.0176C96.7194 15.0176 100 11.8139 100 7.50887C100 3.16371 96.7785 0 92.6139 0C88.5284 0 85.2478 3.20382 85.2478 7.50887ZM96.3259 7.52887C96.3259 9.57124 95.0295 11.4134 92.673 11.4134C90.2373 11.4134 88.9208 9.61135 88.9208 7.48877C88.9208 5.4464 90.2173 3.60427 92.5749 3.60427C95.0105 3.60427 96.3259 5.4064 96.3259 7.52887ZM39.0885 7.16843C40.1491 6.74797 41.2098 5.78685 41.2098 3.96472C41.2098 1.64191 39.5009 0.300339 36.8688 0.300339H29.994V14.7173H36.9474C39.6188 14.7173 41.6419 13.3957 41.6419 10.7126C41.6419 8.83044 40.5419 7.58888 39.0885 7.12843V7.16843ZM33.6082 3.34393H36.201C36.9474 3.34393 37.5367 3.76449 37.5367 4.6455C37.5367 5.56652 36.8492 5.94697 36.201 5.94697H33.6082V3.34393ZM37.9688 10.232C37.9688 11.2333 37.242 11.6737 36.4368 11.6737H33.6082V8.75033H36.4564C37.3599 8.75033 37.9688 9.31101 37.9688 10.232ZM26.0065 15.0176C27.1655 15.0176 28.0887 14.0966 28.0887 12.9152C28.0887 11.7338 27.1655 10.8127 26.0065 10.8127C24.8477 10.8127 23.9245 11.7338 23.9245 12.9152C23.9245 14.0966 24.8477 15.0176 26.0065 15.0176ZM3.02501 15.0176C5.67671 15.0176 7.07134 12.2945 8.28917 8.61012H8.48559C7.99455 11.7939 8.15162 15.0176 11.0784 15.0176C13.7104 15.0176 14.9676 12.2744 16.0676 8.61012H16.264C15.7532 11.7338 15.8908 15.0176 18.8961 15.0176C21.5281 15.0176 23.0013 12.3345 23.5709 8.63012H21.7246C21.5084 9.45112 21.1353 10.252 20.4478 10.252C19.0139 10.252 19.7996 7.80921 20.4281 4.74562L21.3317 0.300339H16.9121C16.9121 0.300339 14.5747 10.252 12.7283 10.252C11.3729 10.252 12.0409 7.52887 12.6105 4.70551L13.4944 0.300339H9.07483C8.24982 3.60427 6.50171 10.252 4.87133 10.252C4.34105 10.252 4.2035 9.91168 4.2035 9.47113C4.2035 9.19079 4.28209 8.89045 4.38029 8.63012H0.333969C0.117935 9.51123 0 10.3521 0 11.2131C0 13.3757 0.785763 15.0176 3.02501 15.0176Z" fill="#0A0A0A"/>
</svg>
