<svg width="148" height="65" viewBox="0 0 148 65" fill="none" xmlns="http://www.w3.org/2000/svg">
<path d="M86.5446 12.3955C73.3573 15.2544 64.291 25.0489 66.293 34.2836C68.2949 43.5183 80.6034 48.679 93.7907 45.8201C106.978 42.9613 116.044 33.1667 114.042 23.9321C112.04 14.6974 99.732 9.53665 86.5446 12.3955ZM92.1032 38.036C82.9992 40.0097 75.168 36.7875 74.2556 32.5788C73.3432 28.3701 79.1369 22.1941 88.241 20.2205C97.3451 18.2468 105.176 21.469 106.089 25.6777C107.001 29.8865 101.228 36.0579 92.1032 38.036Z" fill="#0A0A0A"/>
<path d="M9.2003 29.1628C-0.292419 31.2207 -6.35892 40.3601 -4.37918 49.5937C-2.37843 58.8227 6.92823 64.6294 16.4254 62.5919C25.9181 60.534 31.9846 51.3946 30.0048 42.161C27.9997 32.9116 18.693 27.1049 9.2003 29.1628ZM21.9778 43.8798C23.0446 48.8006 19.8124 53.6699 14.7555 54.7876C9.69409 55.8849 4.71462 52.7957 3.64785 47.8749C2.58108 42.9541 5.80881 38.0643 10.8702 36.9671C15.9316 35.8698 20.911 38.959 21.9778 43.8798Z" fill="#0A0A0A"/>
<path d="M60.5702 44.4861L47.8011 47.2543L59.0217 20.3339C59.3859 19.4484 58.6528 18.4423 57.7477 18.6385L34.3343 23.7143C32.0127 24.2176 30.5265 26.9595 31.5843 29.4634C32.356 31.3125 34.2917 32.2596 36.1018 31.8671L46.5886 29.5937L35.353 56.5398C34.9887 57.4253 35.7172 58.41 36.6026 58.218L62.1999 52.6688C64.0101 52.2764 65.3798 50.6128 65.3164 48.6101C65.2377 45.8715 62.8919 43.9828 60.5702 44.4861Z" fill="#0A0A0A"/>
<path d="M146.639 3.64639L152.744 31.8065C152.799 32.0631 152.774 32.3373 152.658 32.5864C152.383 33.1833 151.69 33.423 151.114 33.1224L126.349 20.1564L129.316 33.8409C129.816 36.1502 128.406 38.381 126.198 38.7926C124.071 39.1866 122.013 37.6404 121.531 35.4167L115.449 7.36342C115.389 7.08545 115.414 6.81125 115.531 6.56219C115.81 5.98671 116.503 5.747 117.058 6.05195L141.823 19.018L138.88 5.44039C138.398 3.21665 139.636 0.978243 141.71 0.439006C143.906 -0.12666 146.138 1.33713 146.639 3.64639Z" fill="#0A0A0A"/>
</svg>
