<svg width="25" height="20" viewBox="0 0 25 20" fill="none" xmlns="http://www.w3.org/2000/svg">
<path d="M0.656806 9.11688C0.714218 9.08913 0.771656 9.06276 0.827633 9.03779C1.80077 8.60211 2.78682 8.1942 3.77144 7.78627C3.82454 7.78627 3.91351 7.72661 3.96374 7.70718C4.03981 7.67527 4.1159 7.64475 4.19197 7.61284C4.33837 7.55179 4.48478 7.49212 4.62974 7.43107C4.92254 7.31036 5.21389 7.18964 5.50669 7.06893L7.25919 6.34327C8.42752 5.86042 9.59732 5.37619 10.7657 4.89334C11.934 4.41049 13.1037 3.92625 14.2721 3.4434C15.4404 2.96056 16.6102 2.47633 17.7785 1.99348C18.9468 1.51063 20.1166 1.02639 21.285 0.543543C21.5448 0.435318 21.8261 0.274364 22.1045 0.22719C22.3385 0.186952 22.5667 0.109256 22.8021 0.0662438C23.2484 -0.0156185 23.7408 -0.0489153 24.1685 0.130072C24.3163 0.192509 24.4527 0.27992 24.5661 0.389533C25.1086 0.908456 25.0325 1.76037 24.9177 2.49019C24.1182 7.57675 23.3188 12.6647 22.5179 17.7513C22.4088 18.4492 22.2595 19.2151 21.6897 19.6563C21.2074 20.0295 20.5214 20.0712 19.9257 19.913C19.3301 19.7534 18.8048 19.419 18.2895 19.0902C16.1523 17.7221 14.0137 16.3541 11.8766 14.986C11.3685 14.6613 10.803 14.2367 10.8087 13.6471C10.8116 13.2919 11.0312 12.9755 11.2551 12.6938C13.1124 10.3518 15.7921 8.74225 17.7857 6.50839C18.067 6.19342 18.2881 5.62455 17.902 5.44279C17.6723 5.33457 17.4082 5.48164 17.1986 5.62177C14.5634 7.39083 11.9297 9.16128 9.29447 10.9303C8.43473 11.5075 7.53336 12.1014 6.49707 12.2429C5.56987 12.3706 4.63693 12.1208 3.73986 11.8655C2.98777 11.6518 2.23708 11.4326 1.48929 11.2064C1.09171 11.0871 0.68121 10.9581 0.374056 10.6875C0.0669014 10.417 -0.109617 9.96186 0.075537 9.60111C0.191796 9.37495 0.417143 9.23204 0.653967 9.11549L0.656806 9.11688Z" fill="#0A0A0A"/>
</svg>
