<svg width="24" height="24" viewBox="0 0 24 24" fill="none" xmlns="http://www.w3.org/2000/svg">
<g>
<path d="M12.0049 0C13.6192 1.15875e-05 15.1848 0.294613 16.6621 0.884766C18.0905 1.45523 19.372 2.27197 20.4775 3.30469C21.5831 4.34731 22.4539 5.55773 23.0605 6.90527C23.6866 8.31169 24.0098 9.79673 24 11.3408C24 12.8752 23.6769 14.3709 23.0508 15.7676C22.4442 17.115 21.5733 18.3246 20.4678 19.3672C19.3622 20.4098 18.0807 21.2166 16.6523 21.7871C15.175 22.3773 13.6094 22.6719 11.9951 22.6719C10.2634 22.6719 8.60934 22.3378 7.05371 21.6689L1.84961 24L2.82715 18.6396C0.997579 16.5938 0 14.0163 0 11.3311C1.30612e-05 9.79675 0.323134 8.3019 0.949219 6.90527C1.55582 5.55773 2.42665 4.34731 3.53223 3.30469C4.63774 2.26218 5.91932 1.45521 7.34766 0.884766C8.82497 0.294642 10.3906 0 12.0049 0ZM8.6084 6.18555C7.28296 5.5042 6.52197 6.8664 6.20996 7.57715C4.32871 12.1039 15.6361 20.7196 17.9365 14.7812C18.0534 14.2655 18.0045 14.0705 17.8291 13.8369C17.4782 13.5936 17.0686 13.4867 16.708 13.3018C16.2012 13.0487 15.8306 12.8932 15.5674 12.7959C15.4017 12.7375 15.0127 12.5624 14.876 12.6689C14.4471 13.0194 13.9883 14.0123 13.501 14.1973C12.2924 13.9636 11.1712 13.136 10.2939 12.2891C9.90408 11.919 9.18353 10.8685 9.02734 10.5859C8.9981 10.2939 9.52458 9.90458 9.6416 9.68066C10.2459 8.99924 9.78696 8.57039 9.70898 8.28809C9.5725 7.99597 9.33938 7.47017 9.13477 7.04199C8.95938 6.75978 8.91999 6.34145 8.6084 6.18555Z" fill="#0A0A0A"/>
</g>
</svg>
