<svg width="30" height="18" viewBox="0 0 30 18" fill="none" xmlns="http://www.w3.org/2000/svg">
<path fill-rule="evenodd" clip-rule="evenodd" d="M29.2938 1.25C29.5163 0.545 29.2938 0.0324998 28.3094 0.0324998H25.0363C24.2107 0.0324998 23.8294 0.48125 23.6069 0.96125C23.6069 0.96125 21.9232 5.06125 19.5719 7.71937C18.8094 8.48812 18.46 8.74438 18.0469 8.74438C17.8244 8.74438 17.5381 8.48812 17.5381 7.78375V1.21688C17.5381 0.384375 17.2844 0 16.585 0H11.4375C10.9288 0 10.6113 0.384375 10.6113 0.76875C10.6113 1.56938 11.7869 1.76187 11.9138 4.00375V8.875C11.9138 9.93188 11.7263 10.125 11.31 10.125C10.1981 10.125 7.49751 5.99312 5.87751 1.285C5.56251 0.3525 5.24251 0 4.41626 0H1.11188C0.15875 0 0 0.448125 0 0.92875C0 1.79375 1.11188 6.14938 5.17876 11.9144C7.87939 15.8519 11.7238 17.9681 15.1869 17.9681C17.2844 17.9681 17.5381 17.4875 17.5381 16.6869V13.7081C17.5381 12.7475 17.7288 12.5875 18.3963 12.5875C18.8725 12.5875 19.7307 12.8431 21.6688 14.7331C23.8925 16.975 24.2738 18 25.5132 18H28.7857C29.7388 18 30.1838 17.5194 29.9294 16.5906C29.6438 15.6619 28.5632 14.3169 27.165 12.7156C26.4025 11.8194 25.2588 10.8263 24.9094 10.3456C24.4332 9.705 24.56 9.44875 24.9094 8.8725C24.8775 8.8725 28.8813 3.17125 29.2938 1.2475" fill="#0A0A0A"/>
</svg>
