<svg width="24" height="24" viewBox="0 0 24 24" fill="none" xmlns="http://www.w3.org/2000/svg">
<path fill-rule="evenodd" clip-rule="evenodd" d="M12.2593 23.9334C9.90155 23.9334 8.806 23.5866 6.90716 22.1994C5.69849 23.7602 1.89444 24.9744 1.72696 22.8931C1.72696 21.3336 1.37835 20.0199 0.993875 18.574C0.523347 16.8022 0 14.8314 0 11.967C0 5.13753 5.58009 0 12.1972 0C18.8123 0 24 5.38722 24 12.0335C24 18.6789 18.647 23.9336 12.259 23.9336L12.2593 23.9334ZM12.3548 5.90504C9.13546 5.73562 6.62348 7.97811 6.06932 11.4881C5.61002 14.3954 6.42387 17.9372 7.11954 18.1153C7.4479 18.1994 8.28816 17.5168 8.80578 16.9967C9.65814 17.5513 10.6355 17.9813 11.7223 18.0377C15.0278 18.2116 17.9562 15.6149 18.1298 12.2965C18.3033 8.97818 15.6603 6.07891 12.3552 5.90504H12.3548Z" fill="#0A0A0A"/>
</svg>
